<svg data-name="Laag 1" viewBox="0 0 149.98 59.43" xmlns="http://www.w3.org/2000/svg" class="logo"><defs><clipPath id="z" transform="translate(-222.51 -391.29)"><path class="cls-1" d="M293 419.91v.6a.56.56 0 0 0 0 .2s0 .07.08.07.22-.09.36-.27a2.22 2.22 0 0 1 .19-.24 3 3 0 0 1 1.09-.8 3.61 3.61 0 0 1 1.44-.25 3.25 3.25 0 0 1 2.71 1 5.55 5.55 0 0 1 .84 3.44v3.12a1.27 1.27 0 0 0 .13.53 3.51 3.51 0 0 0 .53.33.75.75 0 0 1 .48.67q0 .5-.6.69a7.61 7.61 0 0 1-2.17.2 7.7 7.7 0 0 1-2.18-.2q-.6-.19-.6-.69c0-.3.2-.54.6-.73a2.05 2.05 0 0 0 .32-.17 1 1 0 0 0 .2-.52c0-.27.05-.79.05-1.57a8.67 8.67 0 0 0-.34-3.12 1.3 1.3 0 0 0-1.27-.69 1.54 1.54 0 0 0-1.46.85 5.87 5.87 0 0 0-.46 2.7v1.6a1.41 1.41 0 0 0 .15.64 2.51 2.51 0 0 0 .52.34.75.75 0 0 1 .46.67c0 .33-.2.56-.59.69a7.61 7.61 0 0 1-2.17.2 7.7 7.7 0 0 1-2.18-.2q-.6-.19-.6-.69c0-.3.2-.54.6-.73a1.83 1.83 0 0 0 .31-.17 1 1 0 0 0 .21-.58 20.41 20.41 0 0 0 .07-2.11 22.17 22.17 0 0 0-.08-2.36 1.14 1.14 0 0 0-.26-.71l-.56-.19a.63.63 0 0 1-.53-.62.67.67 0 0 1 .19-.43 2 2 0 0 1 .58-.38 10.84 10.84 0 0 1 1.72-.63 6 6 0 0 1 1.46-.23.7.7 0 0 1 .52.15.8.8 0 0 1 .14.54"/></clipPath><clipPath id="p" transform="translate(-222.51 -391.29)"><path class="cls-1" d="M310.06 419.3a3.88 3.88 0 0 1 1.55.23.73.73 0 0 1 .52.68q0 .39-.69.69l-.28.13a2.34 2.34 0 0 0-1 1.19l-.13.28c-.22.44-.52 1.05-.89 1.84-1.63 3.37-2.67 5.05-3.14 5.05s-1.66-1.84-3.34-5.52c-.26-.57-.46-1-.59-1.3a10 10 0 0 0-.56-1.12 1.11 1.11 0 0 0-.32-.35 3.33 3.33 0 0 0-.37-.14c-.46-.15-.69-.39-.69-.7s.21-.6.64-.74a8.24 8.24 0 0 1 2.35-.22 7.08 7.08 0 0 1 2 .2.73.73 0 0 1 .57.71.67.67 0 0 1-.38.53c-.26.16-.39.3-.39.4a2.16 2.16 0 0 0 .16.56c.11.27.32.74.63 1.42l.2.43c.5 1.09.81 1.64.91 1.64s.1-.08.19-.24.25-.45.48-.89c.44-.89.75-1.54.94-2a2.88 2.88 0 0 0 .27-.83c0-.09-.16-.23-.47-.4a.78.78 0 0 1-.47-.66.72.72 0 0 1 .54-.69 4.83 4.83 0 0 1 1.71-.22"/></clipPath><clipPath id="g" transform="translate(-222.51 -391.29)"><path class="cls-1" d="M320.44 424.42h-4.7a.7.7 0 0 0-.41.07.27.27 0 0 0-.09.24 2.34 2.34 0 0 0 .74 1.72 2.44 2.44 0 0 0 1.79.73 3.79 3.79 0 0 0 1.66-.41 5.15 5.15 0 0 1 1-.41.71.71 0 0 1 .47.16.52.52 0 0 1 .19.39 1.38 1.38 0 0 1-.19.69 2.75 2.75 0 0 1-.66.68 5.06 5.06 0 0 1-1.57.84 5.67 5.67 0 0 1-1.84.29 4.82 4.82 0 0 1-5.07-5.06 5.1 5.1 0 0 1 1.45-3.75 5 5 0 0 1 3.69-1.47 4.67 4.67 0 0 1 3.2 1.09 3.56 3.56 0 0 1 1.25 2.79 2.22 2.22 0 0 1-.19 1.15.84.84 0 0 1-.73.26m-4.89-1.4H318a.43.43 0 0 0 .28-.07.38.38 0 0 0 .08-.27 2.08 2.08 0 0 0-.46-1.41 1.43 1.43 0 0 0-1.17-.55 1.39 1.39 0 0 0-1.11.59 2.24 2.24 0 0 0-.46 1.44.23.23 0 0 0 .08.21.48.48 0 0 0 .28.06"/></clipPath><clipPath id="f" transform="translate(-222.51 -391.29)"><path class="cls-1" d="M322.23 422.18a2.83 2.83 0 0 1 .89-2.17 3.35 3.35 0 0 1 2.36-.83 6.19 6.19 0 0 1 .8.07l.54.07a1.69 1.69 0 0 0 .53-.16 1.44 1.44 0 0 1 .54-.16.75.75 0 0 1 .42.14 1.76 1.76 0 0 1 .41.37 5.43 5.43 0 0 1 .64 1.19 3.24 3.24 0 0 1 .24 1.14 1 1 0 0 1-.18.61.59.59 0 0 1-.48.23.83.83 0 0 1-.43-.13 2.48 2.48 0 0 1-.47-.49l-.21-.29a2.15 2.15 0 0 0-1.59-1.09.92.92 0 0 0-.6.22.72.72 0 0 0-.25.53c0 .42.54.88 1.61 1.37l.62.3a4.9 4.9 0 0 1 1.81 1.32 2.71 2.71 0 0 1 .55 1.73 3 3 0 0 1-1.06 2.34 4.09 4.09 0 0 1-2.74.92 5.35 5.35 0 0 1-1-.1 6.14 6.14 0 0 0-.66-.09 1.74 1.74 0 0 0-.45.09 1.48 1.48 0 0 1-.45.1.94.94 0 0 1-.45-.14 1.36 1.36 0 0 1-.39-.4 5.39 5.39 0 0 1-.62-1.22 3.4 3.4 0 0 1-.22-1.12 1.19 1.19 0 0 1 .21-.73.64.64 0 0 1 .54-.28c.31 0 .69.34 1.13 1l.3.45a2.06 2.06 0 0 0 .83.71 2.34 2.34 0 0 0 1.09.27 1.29 1.29 0 0 0 .82-.24.76.76 0 0 0 .31-.64c0-.46-.66-1-2-1.68l-.11-.05a7.5 7.5 0 0 1-2.32-1.51 2.51 2.51 0 0 1-.55-1.67"/></clipPath><clipPath id="e" transform="translate(-222.51 -391.29)"><path class="cls-1" d="M331.69 425.94v-5h-1.15a.42.42 0 0 1-.33-.11 1.41 1.41 0 0 1-.08-.63q0-.46.69-1l.22-.16.65-.49a6.3 6.3 0 0 1 2.56-1.46.81.81 0 0 1 .47.09 1.12 1.12 0 0 1 .1.6v1.59h2.38a.66.66 0 0 1 .39.08.46.46 0 0 1 .09.34 2.56 2.56 0 0 1-.1.92c-.06.11-.24.17-.53.17h-2.23v4.53a4 4 0 0 0 .22 1.64.79.79 0 0 0 .77.43 2.32 2.32 0 0 0 .91-.24 2.46 2.46 0 0 1 .75-.23.53.53 0 0 1 .39.16.54.54 0 0 1 .16.41c0 .45-.33.87-1 1.26a4.5 4.5 0 0 1-2.31.58 3 3 0 0 1-2.34-.8 3.87 3.87 0 0 1-.72-2.62Z"/></clipPath><clipPath id="d" transform="translate(-222.51 -391.29)"><path class="cls-1" d="M342.93 423v2.4a12.64 12.64 0 0 0 .06 1.55.88.88 0 0 0 .2.52 2.3 2.3 0 0 0 .33.17c.39.19.59.43.59.72s-.2.57-.6.7a7.73 7.73 0 0 1-2.19.2 7.58 7.58 0 0 1-2.16-.2.72.72 0 0 1-.59-.7c0-.29.19-.53.58-.72l.32-.17a1 1 0 0 0 .2-.59 16.56 16.56 0 0 0 .06-1.79c0-1.41 0-2.3-.07-2.67a1.11 1.11 0 0 0-.28-.72 5.25 5.25 0 0 0-.55-.18.61.61 0 0 1-.32-1.05 2.08 2.08 0 0 1 .57-.38 11.72 11.72 0 0 1 1.73-.63 5.88 5.88 0 0 1 1.46-.23.72.72 0 0 1 .56.17 1.35 1.35 0 0 1 .13.75V423m-3.96-6.42a1.41 1.41 0 0 1 .64-1.17 2.43 2.43 0 0 1 1.54-.49 2.21 2.21 0 0 1 1.4.44 1.33 1.33 0 0 1 .56 1.08 1.39 1.39 0 0 1-.62 1.13 2.46 2.46 0 0 1-1.52.43 2.37 2.37 0 0 1-1.43-.41 1.26 1.26 0 0 1-.56-1"/></clipPath><clipPath id="c" transform="translate(-222.51 -391.29)"><path class="cls-1" d="M349 419.91v.6a.56.56 0 0 0 0 .2s.05.07.08.07.22-.09.36-.27a2.22 2.22 0 0 1 .19-.24 3 3 0 0 1 1.09-.8 3.61 3.61 0 0 1 1.44-.25 3.25 3.25 0 0 1 2.71 1 5.55 5.55 0 0 1 .84 3.44v3.12a1.27 1.27 0 0 0 .13.53 3.51 3.51 0 0 0 .53.33.75.75 0 0 1 .48.67q0 .5-.6.69a7.57 7.57 0 0 1-2.17.2 7.7 7.7 0 0 1-2.18-.2q-.6-.19-.6-.69c0-.3.2-.54.6-.73a2.05 2.05 0 0 0 .32-.17 1 1 0 0 0 .2-.52c0-.27.05-.79.05-1.57a8.67 8.67 0 0 0-.34-3.12 1.3 1.3 0 0 0-1.27-.69 1.54 1.54 0 0 0-1.46.85 5.87 5.87 0 0 0-.46 2.7v1.6a1.41 1.41 0 0 0 .15.64 2.89 2.89 0 0 0 .52.34.75.75 0 0 1 .46.67c0 .33-.2.56-.59.69a7.61 7.61 0 0 1-2.17.2 7.7 7.7 0 0 1-2.18-.2q-.6-.19-.6-.69c0-.3.2-.54.6-.73a1.83 1.83 0 0 0 .31-.17 1 1 0 0 0 .22-.58c0-.3.06-1 .06-2.11a22.17 22.17 0 0 0-.08-2.36 1.14 1.14 0 0 0-.26-.71l-.56-.19a.63.63 0 0 1-.53-.62.67.67 0 0 1 .19-.43 2 2 0 0 1 .58-.38 11.22 11.22 0 0 1 1.72-.63 6 6 0 0 1 1.47-.23.67.67 0 0 1 .51.15.8.8 0 0 1 .14.54"/></clipPath><clipPath id="b" transform="translate(-222.51 -391.29)"><path class="cls-2" d="M357.2 418.74h10.29v14.35H357.2z"/></clipPath><clipPath id="a" transform="translate(-222.51 -391.29)"><path class="cls-2" d="M356.51 418h11v16h-11z"/></clipPath><clipPath id="y" transform="translate(-222.51 -391.29)"><path class="cls-1" d="M358.49 428.81a2.12 2.12 0 0 1-.81-.62 1.42 1.42 0 0 1-.27-.86 1.55 1.55 0 0 1 .37-1 2.78 2.78 0 0 1 1.09-.76 2.69 2.69 0 0 1-.78-1.08 3.94 3.94 0 0 1-.28-1.48 3.47 3.47 0 0 1 1.19-2.81 4.8 4.8 0 0 1 3.25-1 6 6 0 0 1 1.66.24c.56.17.86.25.89.25a2.41 2.41 0 0 0 1-.24 4.32 4.32 0 0 0 1-.68 1 1 0 0 1 .36.33 1 1 0 0 1 .11.48 1.32 1.32 0 0 1-.32.86 3.26 3.26 0 0 1-1 .75 3.38 3.38 0 0 1 .26.69 3.08 3.08 0 0 1 .09.75 3.52 3.52 0 0 1-1.29 2.8 4.88 4.88 0 0 1-3.3 1.11 5 5 0 0 1-1.08-.1 3.11 3.11 0 0 1-.86-.3 1.17 1.17 0 0 0-.2.27.66.66 0 0 0-.06.27.63.63 0 0 0 .44.61 3.68 3.68 0 0 0 1.39.2c.39 0 1 0 1.72-.13a15.22 15.22 0 0 1 1.68-.13 3.09 3.09 0 0 1 2 .57 2 2 0 0 1 .7 1.62 3.13 3.13 0 0 1-1.58 2.64 7 7 0 0 1-4 1.06 7 7 0 0 1-3.47-.71 2.14 2.14 0 0 1-1.26-1.92 1.58 1.58 0 0 1 .31-1 2.57 2.57 0 0 1 1-.69m1.37.57a1.75 1.75 0 0 0-.12.27.52.52 0 0 0 0 .17 1.33 1.33 0 0 0 .67 1.14 3.13 3.13 0 0 0 1.76.45 3.9 3.9 0 0 0 1.81-.35 1.05 1.05 0 0 0 .64-1 .72.72 0 0 0-.23-.6 1.13 1.13 0 0 0-.72-.19l-.93.09a12.41 12.41 0 0 1-1.41.09h-.7l-.75-.08m2.23-4.5a1.35 1.35 0 0 0 1.11-.49 2.15 2.15 0 0 0 .39-1.37 2.82 2.82 0 0 0-.47-1.68 1.39 1.39 0 0 0-1.16-.68 1.28 1.28 0 0 0-1 .51 2 2 0 0 0-.41 1.31 3 3 0 0 0 .46 1.73 1.35 1.35 0 0 0 1.13.67"/></clipPath><clipPath id="x" transform="translate(-222.51 -391.29)"><path class="cls-1" d="M294.55 435.9v.59a.49.49 0 0 0 0 .2.09.09 0 0 0 .09.07c.1 0 .22-.09.35-.27l.19-.23a3 3 0 0 1 1.09-.8 3.67 3.67 0 0 1 1.44-.25 3.27 3.27 0 0 1 2.72 1.05 5.6 5.6 0 0 1 .83 3.44v3.12a1.13 1.13 0 0 0 .13.53 3.3 3.3 0 0 0 .53.32.77.77 0 0 1 .47.67.73.73 0 0 1-.59.7 11.93 11.93 0 0 1-4.35 0 .73.73 0 0 1-.6-.7q0-.43.6-.72a1.25 1.25 0 0 0 .31-.18.82.82 0 0 0 .2-.52 12.92 12.92 0 0 0 .06-1.57 8.56 8.56 0 0 0-.35-3.11 1.28 1.28 0 0 0-1.26-.69 1.56 1.56 0 0 0-1.47.84 6.08 6.08 0 0 0-.46 2.71c0 .73 0 1.26.05 1.6a1.5 1.5 0 0 0 .14.64 2.56 2.56 0 0 0 .52.33.77.77 0 0 1 .47.67.73.73 0 0 1-.6.7 8 8 0 0 1-2.17.2 8.15 8.15 0 0 1-2.18-.2.73.73 0 0 1-.6-.7q0-.43.6-.72a1.37 1.37 0 0 0 .32-.18.91.91 0 0 0 .21-.57c0-.3.06-1 .06-2.12a23.34 23.34 0 0 0-.07-2.36 1 1 0 0 0-.27-.7 4.56 4.56 0 0 0-.56-.19.63.63 0 0 1-.52-.62.6.6 0 0 1 .19-.43 2.08 2.08 0 0 1 .57-.38 10.25 10.25 0 0 1 1.72-.63 6 6 0 0 1 1.47-.23.72.72 0 0 1 .51.14.77.77 0 0 1 .14.55"/></clipPath><clipPath id="w" transform="translate(-222.51 -391.29)"><path class="cls-1" d="M307.36 439v2.4a12.72 12.72 0 0 0 .06 1.56.88.88 0 0 0 .19.51 2.22 2.22 0 0 0 .33.18c.4.19.59.43.59.72a.73.73 0 0 1-.6.7 11.87 11.87 0 0 1-4.34 0 .72.72 0 0 1-.59-.7c0-.29.19-.53.58-.72a2 2 0 0 0 .32-.18 1 1 0 0 0 .2-.58 16.92 16.92 0 0 0 .06-1.8c0-1.4 0-2.29-.08-2.66a1.17 1.17 0 0 0-.27-.72 4.75 4.75 0 0 0-.55-.19.62.62 0 0 1-.52-.61.62.62 0 0 1 .2-.43 1.94 1.94 0 0 1 .57-.38 10.35 10.35 0 0 1 1.73-.63 5.81 5.81 0 0 1 1.46-.23c.28 0 .46.05.55.17a1.33 1.33 0 0 1 .14.75V439m-3.92-6.4a1.43 1.43 0 0 1 .63-1.17 2.45 2.45 0 0 1 1.55-.49 2.2 2.2 0 0 1 1.4.43 1.36 1.36 0 0 1 .56 1.09 1.39 1.39 0 0 1-.62 1.13 2.53 2.53 0 0 1-1.53.46 2.41 2.41 0 0 1-1.44-.41 1.25 1.25 0 0 1-.55-1"/></clipPath><clipPath id="v" transform="translate(-222.51 -391.29)"><path class="cls-1" d="M309.86 441.93v-5h-1.16c-.16 0-.27 0-.32-.1a1.47 1.47 0 0 1-.08-.64c0-.3.23-.62.68-.95l.23-.16.65-.5a6.36 6.36 0 0 1 2.55-1.46.7.7 0 0 1 .47.1c.07.07.1.26.1.6v1.59h2.38a.59.59 0 0 1 .39.08c.06.05.09.16.09.34a2.7 2.7 0 0 1-.09.92c-.07.11-.24.17-.54.17H313v4.53a4.21 4.21 0 0 0 .22 1.64.8.8 0 0 0 .78.43 2.41 2.41 0 0 0 .91-.24 2.33 2.33 0 0 1 .74-.24.54.54 0 0 1 .39.17.54.54 0 0 1 .17.4c0 .45-.34.87-1 1.26a4.46 4.46 0 0 1-2.31.59 3 3 0 0 1-2.33-.8 3.89 3.89 0 0 1-.72-2.62Z"/></clipPath><clipPath id="u" transform="translate(-222.51 -391.29)"><path class="cls-1" d="M321.1 439v2.4a12.72 12.72 0 0 0 .06 1.56.82.82 0 0 0 .19.51 1.5 1.5 0 0 0 .33.18c.39.19.59.43.59.72a.73.73 0 0 1-.6.7 8.1 8.1 0 0 1-2.18.2 8 8 0 0 1-2.16-.2.73.73 0 0 1-.6-.7c0-.29.2-.53.59-.72a1.83 1.83 0 0 0 .31-.18.94.94 0 0 0 .21-.58 16.92 16.92 0 0 0 .06-1.8c0-1.4 0-2.29-.08-2.66a1.17 1.17 0 0 0-.27-.72l-.55-.19a.61.61 0 0 1-.52-.61.65.65 0 0 1 .19-.43 2 2 0 0 1 .58-.38 10.25 10.25 0 0 1 1.72-.63 6 6 0 0 1 1.46-.23c.29 0 .47.05.56.17a1.33 1.33 0 0 1 .14.75V439m-3.93-6.4a1.44 1.44 0 0 1 .64-1.17 2.45 2.45 0 0 1 1.55-.49 2.2 2.2 0 0 1 1.4.43 1.36 1.36 0 0 1 .56 1.09 1.39 1.39 0 0 1-.62 1.13 2.55 2.55 0 0 1-1.53.46 2.39 2.39 0 0 1-1.44-.41 1.26 1.26 0 0 1-.56-1"/></clipPath><clipPath id="t" transform="translate(-222.51 -391.29)"><path class="cls-1" d="M328.72 439.27v-.9a2.41 2.41 0 0 0-.23-1.27.87.87 0 0 0-.8-.36 2.06 2.06 0 0 0-1.34.72l-.1.09-.1.09a2.82 2.82 0 0 1-1.78.95 1.13 1.13 0 0 1-.79-.27 1 1 0 0 1-.28-.75c0-.67.46-1.25 1.37-1.76a6.91 6.91 0 0 1 3.37-.75 4.6 4.6 0 0 1 2.94.77 3 3 0 0 1 .93 2.45V442a2.83 2.83 0 0 0 .05.6.41.41 0 0 0 .17.26 3 3 0 0 0 .61.24q.51.17.51.51a1 1 0 0 1-.25.66 2.79 2.79 0 0 1-.76.6 3.76 3.76 0 0 1-.85.38 2.54 2.54 0 0 1-.78.13 1.46 1.46 0 0 1-1-.54 3 3 0 0 0-.57-.54 1 1 0 0 0-.26.16 4.34 4.34 0 0 1-2.63.92 3.52 3.52 0 0 1-2.45-.82 3 3 0 0 1 .25-4.57 5.56 5.56 0 0 1 3.28-.85h.74l.87.08m0 2.89v-1.5l-.36-.07a2.82 2.82 0 0 0-.42 0 2 2 0 0 0-1.34.39 1.39 1.39 0 0 0-.46 1.13 1.42 1.42 0 0 0 .34 1 1.24 1.24 0 0 0 .94.36 1.33 1.33 0 0 0 1-.32 1.34 1.34 0 0 0 .31-1"/></clipPath><clipPath id="s" transform="translate(-222.51 -391.29)"><path class="cls-1" d="M334.16 441.93v-5H333c-.16 0-.27 0-.32-.1a1.47 1.47 0 0 1-.08-.64c0-.3.23-.62.68-.95l.23-.16.65-.5a6.36 6.36 0 0 1 2.55-1.46.7.7 0 0 1 .47.1c.07.07.1.26.1.6v1.59h2.38a.59.59 0 0 1 .39.08c.06.05.09.16.09.34a2.7 2.7 0 0 1-.09.92c-.06.11-.24.17-.54.17h-2.23v4.53a4.21 4.21 0 0 0 .22 1.64.8.8 0 0 0 .78.43 2.41 2.41 0 0 0 .91-.24 2.29 2.29 0 0 1 .81-.28.52.52 0 0 1 .38.17.54.54 0 0 1 .17.4c0 .45-.34.87-1 1.26a4.52 4.52 0 0 1-2.32.59 3 3 0 0 1-2.33-.8 3.89 3.89 0 0 1-.72-2.62Z"/></clipPath><clipPath id="r" transform="translate(-222.51 -391.29)"><path class="cls-1" d="M345.4 439v2.4a12.72 12.72 0 0 0 .06 1.56.82.82 0 0 0 .19.51 1.79 1.79 0 0 0 .33.18c.39.19.59.43.59.72a.73.73 0 0 1-.6.7 8.1 8.1 0 0 1-2.18.2 8 8 0 0 1-2.16-.2.73.73 0 0 1-.6-.7c0-.29.2-.53.59-.72a1.49 1.49 0 0 0 .31-.18.94.94 0 0 0 .21-.58 16.92 16.92 0 0 0 .06-1.8c0-1.4 0-2.29-.08-2.66a1.17 1.17 0 0 0-.27-.72l-.55-.19a.61.61 0 0 1-.52-.61.65.65 0 0 1 .19-.43 2 2 0 0 1 .58-.38 10.58 10.58 0 0 1 1.72-.63 6 6 0 0 1 1.46-.23c.29 0 .47.05.56.17a1.33 1.33 0 0 1 .14.75V439m-3.92-6.4a1.43 1.43 0 0 1 .63-1.17 2.45 2.45 0 0 1 1.55-.49 2.2 2.2 0 0 1 1.4.43 1.36 1.36 0 0 1 .56 1.09 1.39 1.39 0 0 1-.62 1.13 2.53 2.53 0 0 1-1.53.46 2.39 2.39 0 0 1-1.44-.41 1.25 1.25 0 0 1-.55-1"/></clipPath><clipPath id="q" transform="translate(-222.51 -391.29)"><path class="cls-1" d="M356.19 435.28a4.11 4.11 0 0 1 1.55.23.75.75 0 0 1 .52.68c0 .26-.23.5-.69.7l-.28.13a2.34 2.34 0 0 0-1 1.19l-.13.28c-.22.43-.52 1.05-.89 1.83-1.63 3.38-2.67 5.06-3.14 5.06s-1.66-1.84-3.34-5.53c-.26-.56-.46-1-.59-1.3a8.75 8.75 0 0 0-.56-1.11.94.94 0 0 0-.33-.35 2.47 2.47 0 0 0-.31-.09c-.46-.16-.69-.39-.69-.7s.21-.6.64-.75a8.6 8.6 0 0 1 2.34-.22 6.68 6.68 0 0 1 2 .21.73.73 0 0 1 .57.7c0 .2-.13.37-.38.54s-.39.29-.39.4a1.88 1.88 0 0 0 .16.56c.11.27.32.74.63 1.42l.19.43c.51 1.09.82 1.64.92 1.64s.1-.08.19-.24.25-.45.48-.9q.66-1.32.93-2a2.71 2.71 0 0 0 .28-.83c0-.09-.16-.23-.47-.41a.78.78 0 0 1-.47-.66.74.74 0 0 1 .54-.69 5 5 0 0 1 1.71-.22"/></clipPath><clipPath id="o" transform="translate(-222.51 -391.29)"><path class="cls-2" d="M357.9 435.11h9.59v10.29h-9.59z"/></clipPath><clipPath id="n" transform="translate(-222.51 -391.29)"><path class="cls-2" d="M357.51 435h10v11h-10z"/></clipPath><clipPath id="m" transform="translate(-222.51 -391.29)"><path class="cls-1" d="M366.57 440.41h-4.7a.83.83 0 0 0-.41.06.3.3 0 0 0-.09.25 2.36 2.36 0 0 0 .74 1.72 2.44 2.44 0 0 0 1.79.73 3.93 3.93 0 0 0 1.66-.41 4.51 4.51 0 0 1 1-.41.71.71 0 0 1 .47.16.52.52 0 0 1 .19.39 1.38 1.38 0 0 1-.19.69 2.93 2.93 0 0 1-.66.68 5.06 5.06 0 0 1-1.57.84 6 6 0 0 1-1.84.29 4.82 4.82 0 0 1-5.07-5.07 5.1 5.1 0 0 1 1.45-3.74 5 5 0 0 1 3.69-1.48 4.68 4.68 0 0 1 3.2 1.1 3.55 3.55 0 0 1 1.25 2.78 2.24 2.24 0 0 1-.19 1.16.86.86 0 0 1-.73.26m-4.89-1.4h2.48a.43.43 0 0 0 .28-.07.38.38 0 0 0 .08-.27 2.08 2.08 0 0 0-.46-1.41 1.43 1.43 0 0 0-1.17-.55 1.36 1.36 0 0 0-1.11.59 2.24 2.24 0 0 0-.46 1.44.23.23 0 0 0 .08.21.55.55 0 0 0 .28.06"/></clipPath><clipPath id="l" transform="translate(-222.51 -391.29)"><path class="cls-1" d="M284.48 429.53v6.06a34.83 34.83 0 0 0 .15 4.07 2.21 2.21 0 0 0 .51 1.35 6.44 6.44 0 0 0 .86.46c1 .49 1.54 1.12 1.54 1.89s-.52 1.47-1.57 1.83a20.72 20.72 0 0 1-5.71.52 20.32 20.32 0 0 1-5.64-.52c-1-.36-1.56-1-1.56-1.83s.51-1.4 1.52-1.89a7 7 0 0 0 .83-.46 2.54 2.54 0 0 0 .54-1.52 46.34 46.34 0 0 0 .15-4.71 66 66 0 0 0-.2-6.75 2.93 2.93 0 0 0-.71-1.88 12.76 12.76 0 0 0-1.44-.49 1.63 1.63 0 0 1-1.35-1.66 1.61 1.61 0 0 1 .5-1.11 5.05 5.05 0 0 1 1.51-1 27.48 27.48 0 0 1 4.51-1.66 15 15 0 0 1 3.82-.6 1.87 1.87 0 0 1 1.46.44 3.6 3.6 0 0 1 .35 2v7.45"/></clipPath><clipPath id="k" transform="translate(-222.51 -391.29)"><path class="cls-1" d="M270.43 436c0 8-4.32 9.42-7.19 9.42h-31.57c-1.29 0-4.16.15-4.16-1.86 0-1.15-.14-1.15 5.24-6.25 3.66-3.44 12.35-12.41 12.35-17.51a3.75 3.75 0 0 0-4-4.09c-4.38 0-5.24 4.16-8.54 4.16-2.09 0-4.67-2-4.67-4.16 0-6.32 13.49-12.56 22.32-12.56 12.13 0 17.16 5.59 17.16 11.27 0 9.18-12.06 15.07-12.06 18 0 1.65 1.72 2.51 3.16 2.51 5.09 0 6.39-4.3 8.75-4.3 2.66 0 3.23 3.3 3.23 5.38"/></clipPath><clipPath id="j" transform="translate(-222.51 -391.29)"><path class="cls-2" d="M269.15 396.29h20.38v20.38h-20.38z"/></clipPath><clipPath id="i" transform="translate(-222.51 -391.29)"><path class="cls-2" d="M268.51 396h22v21h-22z"/></clipPath><clipPath id="h" transform="translate(-222.51 -391.29)"><path class="cls-1" d="M279.34 396.29a10.19 10.19 0 1 0 10.19 10.19 10.19 10.19 0 0 0-10.19-10.19m5.05 15.23a7.13 7.13 0 0 1-12.14-5.76l2.08 1.14 2.67.1.34 1.08.82.4s1.06 3.19 1.13 3.19a6.76 6.76 0 0 1 .73.2l-.07-2.3.75-1.66-.35-1.31-2.71-.45-.73.36-1.37-.3.79-.82.92-2.67-1.46-1-1.71-.07c.08-.09.14-.17.22-.25a7.12 7.12 0 0 1 5-2.09l.55 1 1.08-.82c.22.05.43.11.65.18l-.57.46-.46 2 .38.41-.41 1.14 1.34 1.38 1.53-.68.79 1.85.91.7 1.34-.8a7.12 7.12 0 0 1-2.07 5.34"/></clipPath><style>.cls-1,.cls-2{fill:none}.cls-1{clip-rule:evenodd}.cls-4{fill:#113451}.cls-12{isolation:isolate}.cls-13{clip-path:url(#a)}.cls-24{clip-path:url(#n)}.cls-29{clip-path:url(#i)}</style></defs><path class="cls-4" d="M60.83 22.93h22.51v20.03H60.83z" style="clip-path:url(#z)"/><path class="cls-4" d="M72.65 23.01h21.97v20.1H72.65z" style="clip-path:url(#p)"/><path class="cls-4" d="M84.26 22.84h19.59v20.29H84.26z" style="clip-path:url(#g)"/><path class="cls-4" d="M94.44 22.71h18.04v20.42H94.44z" style="clip-path:url(#f)"/><path class="cls-4" d="M102.67 20.81h17.89v22.34h-17.89z" style="clip-path:url(#e)"/><path class="cls-4" d="M110.81 18.64h15.79v24.33h-15.79z" style="clip-path:url(#d)"/><path class="cls-4" d="M116.92 22.93h22.51v20.03h-22.51z" style="clip-path:url(#c)"/><g class="cls-12" style="clip-path:url(#b)"><g class="cls-13"><g class="cls-13" style="clip-path:url(#y)"><path class="cls-4" d="M129.69 22.46h20.29v24.35h-20.29z"/></g></g></g><path class="cls-4" d="M62.44 38.92h22.51v20.03H62.44z" style="clip-path:url(#x)"/><path class="cls-4" d="M75.23 34.62h15.79v24.33H75.23z" style="clip-path:url(#w)"/><path class="cls-4" d="M80.83 36.8h17.89v22.34H80.83z" style="clip-path:url(#v)"/><path class="cls-4" d="M88.97 34.62h15.79v24.33H88.97z" style="clip-path:url(#u)"/><path class="cls-4" d="M95.15 38.77h20.51v20.34H95.15z" style="clip-path:url(#t)"/><path class="cls-4" d="M105.13 36.8h17.89v22.34h-17.89z" style="clip-path:url(#s)"/><path class="cls-4" d="M113.27 34.62h15.79v24.33h-15.79z" style="clip-path:url(#r)"/><path class="cls-4" d="M118.78 39h21.97v20.1h-21.97z" style="clip-path:url(#q)"/><g class="cls-12" style="clip-path:url(#o)"><g class="cls-24"><g class="cls-24" style="clip-path:url(#m)"><path class="cls-4" d="M130.39 38.83h19.59v20.29h-19.59z"/></g></g></g><path class="cls-4" d="M44.89 23.4h25.14v36.03H44.89z" style="clip-path:url(#l)"/><path class="cls-4" d="M0 6.84h52.92v52.29H0z" style="clip-path:url(#k)"/><g class="cls-12" style="clip-path:url(#j)"><g class="cls-29"><g class="cls-29" style="clip-path:url(#h)"><path class="cls-4" d="M41.64 0h30.38v30.38H41.64z"/></g></g></g></svg>