
<svg width="299px" height="98px" viewBox="0 0 299 98" version="1.1" xmlns="http://www.w3.org/2000/svg" xmlns:xlink="http://www.w3.org/1999/xlink">
    <defs>
        <polygon id="path-1" points="0.6412 0.3492 33.0252 0.3492 33.0252 37 0.6412 37"></polygon>
        <polygon id="path-3" points="0 98 298.709 98 298.709 0 0 0"></polygon>
    </defs>
    <g id="Symbols" stroke="none" stroke-width="1" fill="none" fill-rule="evenodd">
        <g id="Logo/White">
            <g id="Group-28">
                <path d="M48.0628,45.0799 C50.2178,46.0349 52.9158,46.5139 56.1598,46.5139 C60.4678,46.5139 63.9218,45.6139 66.5208,43.8129 C69.1208,42.0149 70.4198,39.3159 70.4198,35.7179 C70.4198,33.4089 69.8078,31.5529 68.5878,30.1529 C67.3658,28.7539 65.8888,27.7109 64.1568,27.0209 C62.4238,26.3329 60.1798,25.6349 57.4268,24.9229 C55.4268,24.4339 53.8708,23.9899 52.7608,23.5899 C51.6508,23.1899 50.7178,22.6569 49.9628,21.9899 C49.2068,21.3229 48.8288,20.4799 48.8288,19.4579 C48.8288,18.2159 49.3628,17.1149 50.4288,16.1589 C51.4948,15.2049 53.3608,14.7269 56.0268,14.7269 C58.7348,14.7269 60.7018,15.2379 61.9238,16.2589 C63.1448,17.2809 63.7558,18.5699 63.7558,20.1249 L63.7558,20.7249 L69.4868,20.7249 L69.5538,19.4579 C69.5538,17.6819 69.0528,16.0709 68.0538,14.6259 C67.0548,13.1839 65.5768,12.0269 63.6228,11.1609 C61.6678,10.2949 59.3578,9.8629 56.6928,9.8629 C52.4288,9.8629 49.0408,10.7629 46.5298,12.5609 C44.0208,14.3599 42.7658,16.7929 42.7658,19.8579 C42.7658,21.9459 43.3328,23.6449 44.4648,24.9559 C45.5968,26.2669 46.9738,27.2549 48.5968,27.9209 C50.2178,28.5869 52.3158,29.2539 54.8928,29.9209 C57.0258,30.4529 58.7128,30.9529 59.9588,31.4199 C61.2008,31.8859 62.2448,32.5309 63.0888,33.3519 C63.9338,34.1749 64.3558,35.2289 64.3558,36.5169 C64.3558,38.1619 63.6118,39.4379 62.1238,40.3489 C60.6348,41.2599 58.7578,41.7149 56.4918,41.7149 C53.8708,41.7149 51.7388,41.1929 50.0958,40.1489 C48.4518,39.1059 47.6298,37.5399 47.6298,35.4499 L47.6298,34.7849 L41.8328,34.7849 C41.8328,34.8299 41.8208,34.9519 41.7998,35.1509 C41.7758,35.3509 41.7668,35.7179 41.7668,36.2499 C41.7668,38.0719 42.2768,39.7619 43.2988,41.3139 C44.3198,42.8699 45.9078,44.1259 48.0628,45.0799" id="Fill-1" fill="#FFFFFF"></path>
                <path d="M82.3977,45.0799 C84.5527,46.0349 87.2507,46.5139 90.4947,46.5139 C94.8027,46.5139 98.2577,45.6139 100.8557,43.8129 C103.4567,42.0149 104.7547,39.3159 104.7547,35.7179 C104.7547,33.4089 104.1437,31.5529 102.9227,30.1529 C101.7007,28.7539 100.2237,27.7109 98.4917,27.0209 C96.7587,26.3329 94.5147,25.6349 91.7617,24.9229 C89.7617,24.4339 88.2057,23.9899 87.0957,23.5899 C85.9857,23.1899 85.0527,22.6569 84.2977,21.9899 C83.5417,21.3229 83.1647,20.4799 83.1647,19.4579 C83.1647,18.2159 83.6977,17.1149 84.7637,16.1589 C85.8297,15.2049 87.6957,14.7269 90.3617,14.7269 C93.0697,14.7269 95.0367,15.2379 96.2587,16.2589 C97.4797,17.2809 98.0907,18.5699 98.0907,20.1249 L98.0907,20.7249 L103.8217,20.7249 L103.8887,19.4579 C103.8887,17.6819 103.3877,16.0709 102.3887,14.6259 C101.3897,13.1839 99.9117,12.0269 97.9577,11.1609 C96.0027,10.2949 93.6927,9.8629 91.0277,9.8629 C86.7637,9.8629 83.3757,10.7629 80.8647,12.5609 C78.3557,14.3599 77.1007,16.7929 77.1007,19.8579 C77.1007,21.9459 77.6677,23.6449 78.7997,24.9559 C79.9317,26.2669 81.3087,27.2549 82.9317,27.9209 C84.5527,28.5869 86.6507,29.2539 89.2277,29.9209 C91.3607,30.4529 93.0487,30.9529 94.2937,31.4199 C95.5357,31.8859 96.5797,32.5309 97.4247,33.3519 C98.2687,34.1749 98.6907,35.2289 98.6907,36.5169 C98.6907,38.1619 97.9467,39.4379 96.4587,40.3489 C94.9707,41.2599 93.0927,41.7149 90.8277,41.7149 C88.2057,41.7149 86.0737,41.1929 84.4307,40.1489 C82.7867,39.1059 81.9647,37.5399 81.9647,35.4499 L81.9647,34.7849 L76.1677,34.7849 C76.1677,34.8299 76.1557,34.9519 76.1347,35.1509 C76.1117,35.3509 76.1017,35.7179 76.1017,36.2499 C76.1017,38.0719 76.6117,39.7619 77.6337,41.3139 C78.6547,42.8699 80.2427,44.1259 82.3977,45.0799" id="Fill-3" fill="#FFFFFF"></path>
                <path d="M118.8782,17.1248 C120.5442,15.5268 123.0432,14.7278 126.3752,14.7278 C132.3742,14.7278 135.3712,18.1258 135.3712,24.9228 L115.8472,24.9228 C116.2012,21.3228 117.2122,18.7248 118.8782,17.1248 M126.3752,46.5138 C130.8172,46.5138 134.4482,45.4128 137.2722,43.2148 C140.0912,41.0158 141.5032,37.8728 141.5032,33.7838 L135.7722,33.7838 C135.7722,36.4508 134.9052,38.4278 133.1732,39.7168 C131.4402,41.0048 129.1742,41.6478 126.3752,41.6478 C122.9102,41.6478 120.3212,40.6828 118.6122,38.7488 C116.9012,36.8168 115.9352,33.8288 115.7142,29.7868 L141.5032,29.7868 L141.5032,26.8538 C141.5032,20.9018 140.2462,16.5828 137.7372,13.8948 C135.2272,11.2058 131.4402,9.8628 126.3752,9.8628 C120.7332,9.8628 116.5352,11.3508 113.7802,14.3268 C111.0252,17.3048 109.6492,21.9238 109.6492,28.1878 C109.6492,34.4508 111.0252,39.0728 113.7802,42.0478 C116.5352,45.0248 120.7332,46.5138 126.3752,46.5138" id="Fill-5" fill="#FFFFFF"></path>
                <path d="M21.0071,72.8104 L5.9111,72.8104 L5.9111,57.0184 L21.0071,57.0184 C23.6721,57.0184 25.6941,57.6734 27.0721,58.9834 C28.4471,60.2934 29.1371,62.1494 29.1371,64.5474 C29.1371,67.1254 28.4031,69.1454 26.9371,70.6124 C25.4721,72.0784 23.4941,72.8104 21.0071,72.8104 M33.3011,72.5434 C34.7901,70.2784 35.5341,67.5904 35.5341,64.4804 C35.5341,60.5284 34.3111,57.3734 31.8691,55.0184 C29.4241,52.6644 25.9151,51.4874 21.3411,51.4874 L0.0001,51.4874 L0.0001,97.2004 L5.9111,97.2004 L5.9111,78.3414 L20.6741,78.3414 L29.4461,97.2004 L36.5091,97.2004 L27.1381,77.4094 C29.7581,76.4324 31.8121,74.8094 33.3011,72.5434" id="Fill-7" fill="#FFFFFF"></path>
                <path d="M45.0398,76.409 C45.3938,72.81 46.4048,70.212 48.0708,68.612 C49.7368,67.013 52.2358,66.214 55.5678,66.214 C61.5658,66.214 64.5638,69.612 64.5638,76.409 L45.0398,76.409 Z M55.5678,61.349 C49.9268,61.349 45.7278,62.838 42.9738,65.813 C40.2188,68.792 38.8418,73.41 38.8418,79.675 C38.8418,85.938 40.2188,90.56 42.9738,93.534 C45.7278,96.513 49.9268,98 55.5678,98 C60.0098,98 63.6418,96.899 66.4638,94.702 C69.2848,92.502 70.6958,89.359 70.6958,85.271 L64.9648,85.271 C64.9648,87.937 64.0988,89.915 62.3658,91.203 C60.6338,92.492 58.3678,93.136 55.5678,93.136 C52.1028,93.136 49.5148,92.169 47.8048,90.235 C46.0938,88.304 45.1278,85.316 44.9068,81.274 L70.6958,81.274 L70.6958,78.342 C70.6958,72.389 69.4388,68.069 66.9298,65.381 C64.4188,62.693 60.6338,61.349 55.5678,61.349 Z" id="Fill-9" fill="#FFFFFF"></path>
                <path d="M98.491,78.5076 C96.759,77.8196 94.514,77.1206 91.761,76.4086 C89.762,75.9206 88.206,75.4766 87.095,75.0756 C85.985,74.6766 85.052,74.1436 84.297,73.4766 C83.541,72.8106 83.165,71.9666 83.165,70.9456 C83.165,69.7016 83.697,68.6016 84.764,67.6466 C85.83,66.6916 87.696,66.2136 90.361,66.2136 C93.071,66.2136 95.036,66.7246 96.258,67.7456 C97.48,68.7686 98.092,70.0566 98.092,71.6116 L98.092,72.2106 L103.823,72.2106 L103.889,70.9456 C103.889,69.1686 103.389,67.5576 102.389,66.1126 C101.39,64.6706 99.912,63.5146 97.957,62.6486 C96.002,61.7816 93.693,61.3496 91.028,61.3496 C86.763,61.3496 83.374,62.2486 80.866,64.0476 C78.355,65.8466 77.1,68.2786 77.1,71.3456 C77.1,73.4336 77.667,75.1326 78.799,76.4426 C79.933,77.7526 81.309,78.7416 82.93,79.4066 C84.552,80.0736 86.652,80.7406 89.228,81.4066 C91.362,81.9396 93.049,82.4396 94.293,82.9066 C95.536,83.3726 96.58,84.0176 97.425,84.8386 C98.268,85.6616 98.69,86.7156 98.69,88.0046 C98.69,89.6486 97.947,90.9256 96.459,91.8356 C94.97,92.7456 93.094,93.2016 90.828,93.2016 C88.206,93.2016 86.073,92.6796 84.43,91.6356 C82.786,90.5926 81.965,89.0276 81.965,86.9376 L81.965,86.2716 L76.167,86.2716 C76.167,86.3166 76.156,86.4386 76.134,86.6376 C76.111,86.8376 76.1,87.2046 76.1,87.7366 C76.1,89.5596 76.611,91.2476 77.634,92.8016 C78.655,94.3576 80.242,95.6116 82.398,96.5676 C84.552,97.5216 87.252,97.9996 90.495,97.9996 C94.803,97.9996 98.258,97.1006 100.857,95.2996 C103.455,93.5006 104.756,90.8026 104.756,87.2046 C104.756,84.8956 104.144,83.0396 102.922,81.6396 C101.7,80.2396 100.223,79.1976 98.491,78.5076" id="Fill-11" fill="#FFFFFF"></path>
                <g id="Group-15" transform="translate(109.000000, 61.000000)">
                    <mask id="mask-2" fill="white">
                        <use xlink:href="#path-1"></use>
                    </mask>
                    <g id="Clip-14"></g>
                    <path d="M26.9622,18.9412 C26.9622,23.6062 26.1622,26.9712 24.5632,29.0362 C22.9632,31.1032 20.3862,32.1352 16.8332,32.1352 C13.2792,32.1352 10.7032,31.1032 9.1042,29.0362 C7.5042,26.9712 6.7052,23.6062 6.7052,18.9412 L6.7052,18.4072 C6.7052,13.7442 7.5042,10.3782 9.1042,8.3112 C10.7032,6.2472 13.2792,5.2132 16.8332,5.2132 C20.3862,5.2132 22.9632,6.2472 24.5632,8.3112 C26.1622,10.3782 26.9622,13.7442 26.9622,18.4072 L26.9622,18.9412 Z M16.8332,0.3492 C11.4582,0.3492 7.4152,1.8492 4.7052,4.8462 C1.9952,7.8462 0.6412,12.4552 0.6412,18.6742 C0.6412,24.8942 1.9952,29.5032 4.7052,32.5012 C7.4152,35.5012 11.4582,37.0002 16.8332,37.0002 C22.2092,37.0002 26.2512,35.5012 28.9622,32.5012 C31.6702,29.5032 33.0252,24.8942 33.0252,18.6742 C33.0252,12.4552 31.6702,7.8462 28.9622,4.8462 C26.2512,1.8492 22.2092,0.3492 16.8332,0.3492 Z" id="Fill-13" fill="#FFFFFF" mask="url(#mask-2)"></path>
                </g>
                <mask id="mask-4" fill="white">
                    <use xlink:href="#path-3"></use>
                </mask>
                <g id="Clip-17"></g>
                <polygon id="Fill-16" fill="#FFFFFF" mask="url(#mask-4)" points="148.259 97.2 154.123 97.2 154.123 51.487 148.259 51.487"></polygon>
                <path d="M183.325,82.8739 C183.325,84.9619 182.903,86.7819 182.058,88.3369 C181.214,89.8939 180.081,91.0799 178.66,91.9009 C177.238,92.7249 175.684,93.1359 173.996,93.1359 C171.64,93.1359 169.842,92.5919 168.598,91.5029 C167.354,90.4149 166.732,88.4699 166.732,85.6719 L166.732,62.1489 L160.868,62.1489 L160.868,86.0709 C160.868,90.2479 161.811,93.2799 163.7,95.1669 C165.588,97.0559 168.287,97.9999 171.797,97.9999 C177.082,97.9999 181.014,96.1559 183.591,92.4689 L184.058,92.4689 L184.725,97.1999 L189.189,97.1999 L189.189,62.1489 L183.325,62.1489 L183.325,82.8739 Z" id="Fill-18" fill="#FFFFFF" mask="url(#mask-4)"></path>
                <polygon id="Fill-19" fill="#FFFFFF" mask="url(#mask-4)" points="220.596 97.2 226.46 97.2 226.46 62.149 220.596 62.149"></polygon>
                <path d="M258.4344,79.9412 C258.4344,84.6062 257.6344,87.9712 256.0354,90.0362 C254.4354,92.1032 251.8594,93.1352 248.3064,93.1352 C244.7514,93.1352 242.1754,92.1032 240.5764,90.0362 C238.9764,87.9712 238.1774,84.6062 238.1774,79.9412 L238.1774,79.4072 C238.1774,74.7442 238.9764,71.3782 240.5764,69.3112 C242.1754,67.2472 244.7514,66.2132 248.3064,66.2132 C251.8594,66.2132 254.4354,67.2472 256.0354,69.3112 C257.6344,71.3782 258.4344,74.7442 258.4344,79.4072 L258.4344,79.9412 Z M248.3064,61.3492 C242.9304,61.3492 238.8874,62.8492 236.1774,65.8462 C233.4674,68.8462 232.1134,73.4552 232.1134,79.6742 C232.1134,85.8942 233.4674,90.5032 236.1774,93.5012 C238.8874,96.5012 242.9304,98.0002 248.3064,98.0002 C253.6814,98.0002 257.7234,96.5012 260.4344,93.5012 C263.1424,90.5032 264.4974,85.8942 264.4974,79.6742 C264.4974,73.4552 263.1424,68.8462 260.4344,65.8462 C257.7234,62.8492 253.6814,61.3492 248.3064,61.3492 Z" id="Fill-20" fill="#FFFFFF" mask="url(#mask-4)"></path>
                <path d="M295.8758,64.1805 C293.9878,62.2935 291.2888,61.3495 287.7788,61.3495 C282.4918,61.3495 278.5618,63.1935 275.9848,66.8795 L275.5188,66.8795 L274.8528,62.1495 L270.3878,62.1495 L270.3878,97.2005 L276.2518,97.2005 L276.2518,76.4755 C276.2518,74.3875 276.6728,72.5675 277.5178,71.0105 C278.3608,69.4565 279.4948,68.2695 280.9158,67.4465 C282.3378,66.6245 283.8918,66.2135 285.5808,66.2135 C287.9358,66.2135 289.7338,66.7575 290.9778,67.8465 C292.2218,68.9365 292.8448,70.8775 292.8448,73.6775 L292.8448,97.2005 L298.7088,97.2005 L298.7088,73.2775 C298.7088,69.1025 297.7648,66.0695 295.8758,64.1805" id="Fill-21" fill="#FFFFFF" mask="url(#mask-4)"></path>
                <polygon id="Fill-22" fill="#FFFFFF" mask="url(#mask-4)" points="165.9924 16.6258 165.9924 10.7148 154.1694 10.7148 154.1694 -0.0002 148.2584 -0.0002 148.2584 39.8028 154.1694 39.8028 154.1694 16.6258"></polygon>
                <polygon id="Fill-23" fill="#FFFFFF" mask="url(#mask-4)" points="154.169 45.714 165.992 45.714 165.992 39.803 154.169 39.803"></polygon>
                <polygon id="Fill-24" fill="#FFFFFF" mask="url(#mask-4)" points="202.135 97.2 213.958 97.2 213.958 91.289 202.135 91.289"></polygon>
                <polygon id="Fill-25" fill="#FFFFFF" mask="url(#mask-4)" points="213.9578 68.1121 213.9578 62.2011 202.1348 62.2011 202.1348 51.4871 196.2238 51.4871 196.2238 91.2891 202.1348 91.2891 202.1348 68.1121"></polygon>
                <polygon id="Fill-26" fill="#FFFFFF" mask="url(#mask-4)" points="220.596 57.35 226.46 57.35 226.46 51.487 220.596 51.487"></polygon>
                <path d="M29.1428,27.9871 L6.7678,27.9871 L6.4248,27.6421 L16.6738,5.4641 L19.2368,5.4641 L29.4868,27.6421 L29.1428,27.9871 Z M22.9018,0.0001 L13.0098,0.0001 L-0.0002,27.9871 L-0.0002,45.7141 L5.8328,45.7141 L5.8328,33.5171 L30.0778,33.5171 L30.0778,45.7141 L35.9118,45.7141 L35.9118,27.9871 L22.9018,0.0001 Z" id="Fill-27" fill="#FFFFFF" mask="url(#mask-4)"></path>
            </g>
        </g>
    </g>
</svg>
