<svg xmlns="http://www.w3.org/2000/svg" width="1812" height="462" style="width:100%;height:100%;transform:translate3d(0,0,0)"><defs><linearGradient id="l" spreadMethod="pad" gradientUnits="userSpaceOnUse" x1="566.328" y1="498.211" x2="-183.758" y2="-247.18"><stop offset="50%" stop-color="#E6EAF2" stop-opacity="0"/><stop offset="50%" stop-color="#EECFD8" stop-opacity=".5"/><stop offset="50%" stop-color="#F7B4BE"/></linearGradient><linearGradient id="j" spreadMethod="pad" gradientUnits="userSpaceOnUse" x1="566.328" y1="498.211" x2="-183.758" y2="-247.18"><stop offset="50%" stop-color="#E6EAF2" stop-opacity="0"/><stop offset="50%" stop-color="#DCE9F6" stop-opacity=".5"/><stop offset="50%" stop-color="#D1E8FA"/></linearGradient><linearGradient id="h" spreadMethod="pad" gradientUnits="userSpaceOnUse" x1="566.328" y1="498.211" x2="-183.758" y2="-247.18"><stop offset="50%" stop-color="#E6EAF2" stop-opacity="0"/><stop offset="50%" stop-color="#D4DFF0" stop-opacity=".5"/><stop offset="50%" stop-color="#C3D5EF"/></linearGradient><linearGradient id="f" spreadMethod="pad" gradientUnits="userSpaceOnUse" x1="566.328" y1="498.211" x2="-183.758" y2="-247.18"><stop offset="50%" stop-color="#E6EAF2" stop-opacity="0"/><stop offset="50%" stop-color="#DDEAEC" stop-opacity=".5"/><stop offset="50%" stop-color="#D3EAE6"/></linearGradient><linearGradient id="d" spreadMethod="pad" gradientUnits="userSpaceOnUse" x1="566.328" y1="498.211" x2="-183.758" y2="-247.18"><stop offset="50%" stop-color="#E6EAF2" stop-opacity="0"/><stop offset="50%" stop-color="#E6EAF2" stop-opacity=".5"/><stop offset="50%" stop-color="#E6EAF2"/></linearGradient><linearGradient id="b" spreadMethod="pad" gradientUnits="userSpaceOnUse" x1="566.328" y1="498.211" x2="-183.758" y2="-247.18"><stop offset="50%" stop-color="#E6EAF2" stop-opacity="0"/><stop offset="50%" stop-color="#EECFD8" stop-opacity=".5"/><stop offset="50%" stop-color="#F7B4BE"/></linearGradient><filter id="m" filterUnits="objectBoundingBox" x="0%" y="0%" width="100%" height="100%"><feColorMatrix color-interpolation-filters="sRGB" values="0 0 0 0 0.8941177129745483 0 0 0 0 0.01568627543747425 0 0 0 0 0.1568627506494522 0 0 0 1 0"/></filter><filter id="k" filterUnits="objectBoundingBox" x="0%" y="0%" width="100%" height="100%"><feColorMatrix color-interpolation-filters="sRGB" values="0 0 0 0 0.1764705926179886 0 0 0 0 0.686274528503418 0 0 0 0 0.8980392813682556 0 0 0 1 0"/></filter><filter id="i" filterUnits="objectBoundingBox" x="0%" y="0%" width="100%" height="100%"><feColorMatrix color-interpolation-filters="sRGB" values="0 0 0 0 0 0 0 0 0 0.4862745404243469 0 0 0 0 0.7568628191947937 0 0 0 1 0"/></filter><filter id="g" filterUnits="objectBoundingBox" x="0%" y="0%" width="100%" height="100%"><feColorMatrix color-interpolation-filters="sRGB" values="0 0 0 0 0.20000001788139343 0 0 0 0 0.7098039388656616 0 0 0 0 0.6509804129600525 0 0 0 1 0"/></filter><filter id="e" filterUnits="objectBoundingBox" x="0%" y="0%" width="100%" height="100%"><feColorMatrix color-interpolation-filters="sRGB" values="0 0 0 0 0.41568630933761597 0 0 0 0 0.4784314036369324 0 0 0 0 0.6705882549285889 0 0 0 1 0"/></filter><filter id="c" filterUnits="objectBoundingBox" x="0%" y="0%" width="100%" height="100%"><feColorMatrix color-interpolation-filters="sRGB" values="0 0 0 0 0.8941177129745483 0 0 0 0 0.01568627543747425 0 0 0 0 0.1568627506494522 0 0 0 1 0"/></filter><clipPath id="a"><path d="M0 0h1812v462H0z"/></clipPath></defs><g clip-path="url(#a)"><g style="display:block"><path fill="#090A08" d="M490.903 278.48h26.894V148.24h-26.894v130.24zm149.084-95.117c-14.268 0-22.682 6.037-29.634 15.913-5.122-10.429-14.636-15.913-27.62-15.913-11.159 0-19.027 4.028-25.795 12.805h-.362V185.55h-24.149v92.937h25.611v-47.742c0-17.38 5.853-27.255 17.012-27.255 9.513 0 14.63 6.951 14.63 18.836v56.161h25.611v-47.742c0-17.564 6.037-27.255 17.012-27.255 8.961 0 14.636 6.399 14.636 20.488v54.502h25.611v-57.07c0-25.236-12.627-38.042-32.563-38.042m98.409-.19c-10.791 0-21.036 5.122-26.705 14.636h-.362v-12.259h-24.886v126.766h25.611v-44.995h.368c5.669 8.777 15.735 13.531 26.342 13.531 23.228 0 38.227-19.205 38.227-48.839s-15.177-48.84-38.595-48.84zm-8.23 19.568c12.258 0 20.12 11.528 20.12 29.272 0 17.737-7.861 29.271-20.12 29.271-11.522 0-19.39-10.797-19.39-29.271 0-18.475 7.868-29.265 19.395-29.265m102.248 60.544c-10.981 0-20.304-6.768-21.035-25.973h66.761c0-10.245-.909-17.381-2.93-23.787-5.847-18.836-21.582-30.906-42.98-30.906-29.087 0-46.099 21.215-46.099 48.656 0 29.634 17.012 50.117 46.283 50.117 24.69 0 40.788-14.078 44.448-31.096h-26.158c-1.283 7.505-8.051 12.989-18.29 12.989zm-.184-62.559c10.244 0 18.659 6.4 20.305 20.489h-40.615c2.014-14.089 9.882-20.489 20.316-20.489m105.77-16.644c-10.981 0-19.211 4.569-25.427 14.635h-.368V185.55H888.62v92.937h25.61v-43.914c0-18.29 8.409-28.172 24.143-28.172 2.562 0 5.123.368 8.058.915v-22.135a33.185 33.185 0 0 0-8.42-1.092m20.489-13.9h25.604v-21.944h-25.61v21.95l.006-.006zm0 108.291h25.604v-92.93h-25.61v92.937l.006-.007zm81.391-95.854c-26.521 0-39.326 14.273-40.242 32.011h24.875c.369-8.783 5.853-14.077 15.367-14.077 8.966 0 15.182 4.753 15.182 16.459v3.292a300.15 300.15 0 0 0-23.228 2.562c-26.883 4.207-36.034 14.445-36.034 29.639 0 16.092 11.884 28.166 31.642 28.166 12.8 0 23.229-4.76 30.181-14.636h.368c0 4.571.369 8.599 1.278 12.432h23.05c-1.646-6.216-2.562-13.709-2.562-25.421v-33.657c0-24.327-13.536-36.77-39.877-36.77zm15.182 56.713c0 8.408-.915 13.352-5.306 17.742-3.655 3.656-9.324 5.302-14.63 5.302-8.967 0-13.721-4.755-13.721-11.707 0-7.499 4.392-10.975 14.998-12.806 5.491-.915 13.174-1.645 18.659-2.013v3.482zm39.711 39.141h25.611V148.24h-25.611v130.24zm141.7-133.17c-36.943 0-59.624 25.979-59.624 68.05 0 42.255 22.491 68.049 59.083 68.049 31.826 0 52.499-17.744 55.055-48.661h-27.625c-2.003 15.913-12.069 24.88-27.43 24.88-19.395 0-31.286-16.643-31.286-44.268 0-27.435 12.075-44.265 31.827-44.265 15.194 0 25.248 9.14 26.895 24.328h27.072c-1.283-28.356-21.767-48.113-53.967-48.113zm113.966 37.316c-29.087 0-47.561 19.211-47.561 49.392 0 30.185 18.474 49.391 47.561 49.391 29.081 0 47.562-19.206 47.562-49.391 0-30.181-18.475-49.392-47.562-49.392zm0 19.758c12.621 0 20.661 11.527 20.661 29.634 0 18.111-8.04 29.634-20.661 29.634-12.627 0-20.673-11.523-20.673-29.64 0-18.101 8.046-29.628 20.673-29.628zm60.527 76.096h25.611V148.24h-25.611v130.24zm42.843 0h25.61V148.24h-25.61v130.24zm84.476-15.183c-10.976 0-20.305-6.768-21.036-25.973h66.761c0-10.245-.909-17.381-2.918-23.787-5.859-18.836-21.587-30.906-42.992-30.906-29.081 0-46.099 21.215-46.099 48.656 0 29.634 17.018 50.117 46.284 50.117 24.689 0 40.787-14.078 44.453-31.096h-26.163c-1.283 7.505-8.046 12.989-18.29 12.989zm-.185-62.559c10.244 0 18.658 6.4 20.305 20.489h-40.609c2.014-14.089 9.876-20.489 20.304-20.489zm95.002-17.743c-23.412 0-38.416 18.29-38.416 47.193s14.82 47.192 38.048 47.192c11.165 0 19.026-4.201 25.98-13.898h.362v8.229c0 18.113-7.137 23.966-18.658 23.966-9.693 0-15.551-4.207-16.092-11.338h-25.617c1.467 18.29 15.55 29.627 41.162 29.627 26.704 0 44.085-13.167 44.085-41.333v-87.078h-24.149v12.443h-.363c-7.136-10.618-15.004-15.003-26.342-15.003zm6.953 21.035c12.069 0 19.752 10.423 19.752 26.158 0 15.729-7.683 26.157-19.752 26.157-11.338 0-18.665-10.054-18.665-26.157 0-16.097 7.327-26.158 18.665-26.158zm100.843 59.267c-10.975 0-20.299-6.768-21.035-25.973h66.767c0-10.245-.91-17.381-2.93-23.787-5.847-18.836-21.582-30.906-42.98-30.906-29.092 0-46.099 21.215-46.099 48.656 0 29.634 17.006 50.117 46.277 50.117 24.696 0 40.794-14.078 44.454-31.096h-26.158c-1.283 7.505-8.057 12.989-18.296 12.989zm-.178-62.559c10.245 0 18.659 6.4 20.305 20.489h-40.615c2.014-14.089 9.882-20.489 20.31-20.489zm44.833 256.034h25.605V326.531h-25.605v130.241zm-473.991-133.165c-28.54 0-48.114 15.734-48.114 38.595 0 28.534 22.325 34.393 46.837 40.609 18.473 4.753 26.888 6.952 26.888 18.474 0 10.244-8.783 16.65-22.503 16.65-16.65 0-25.243-8.236-25.243-23.971h-27.803c0 29.64 20.304 45.738 52.683 45.738 30.36 0 50.854-16.46 50.854-41.157 0-28.362-21.22-34.761-45.732-40.793-20.488-5.122-28.35-8.414-28.35-18.474 0-8.414 8.046-14.274 19.93-14.274 14.821 0 22.688 7.868 22.688 21.405h27.251c0-27.983-16.828-42.802-49.386-42.802zm110.438 37.311c-28.351 0-46.83 19.395-46.83 49.392 0 29.996 18.473 49.392 46.83 49.392 25.064 0 41.892-15.73 43.901-39.327h-26.894c-.726 12.064-7.31 19.569-17.192 19.569-12.431 0-19.941-11.338-19.941-29.64 0-18.29 7.505-29.623 19.941-29.623 9.876 0 16.466 6.763 17.381 17.738h26.705c-2.015-21.766-18.837-37.501-43.901-37.501zm80.889 13.174v-47.561h-25.61v130.241h25.61v-49.748c0-17.019 7.684-25.249 18.296-25.249 10.061 0 16.282 6.4 16.282 20.489v54.508h25.611v-57.075c0-25.243-13.352-38.042-34.209-38.042-9.876 0-19.027 4.017-25.611 12.431h-.369m119.036-13.168c-29.086 0-47.561 19.211-47.561 49.392 0 30.185 18.475 49.392 47.561 49.392 29.082 0 47.556-19.207 47.556-49.392 0-30.181-18.474-49.392-47.556-49.392zm0 19.763c12.627 0 20.673 11.522 20.673 29.629 0 18.111-8.046 29.64-20.673 29.64-12.621 0-20.667-11.529-20.667-29.64 0-18.107 8.046-29.629 20.662-29.629m104.274-19.763c-29.087 0-47.562 19.211-47.562 49.392 0 30.185 18.474 49.392 47.562 49.392 29.081 0 47.562-19.207 47.562-49.392 0-30.181-18.475-49.392-47.562-49.392zm0 19.763c12.621 0 20.667 11.522 20.667 29.629 0 18.111-8.046 29.64-20.667 29.64-12.627 0-20.673-11.529-20.673-29.64 0-18.107 8.046-29.629 20.673-29.629zM636.868 458.97c11.89 0 21.22-5.675 27.257-13.905h.362v11.706h23.964v-92.918h-25.61v49.75c0 16.828-7.684 25.247-18.285 25.247-10.072 0-16.287-6.4-16.287-20.489v-54.508h-25.61v57.069c0 25.242 13.352 38.048 34.209 38.048zm103.635-98.052c-23.044 0-38.416 11.896-38.416 28.547 0 21.582 16.649 25.235 32.2 29.259 14.446 3.839 21.398 5.491 21.398 13.537 0 5.49-4.575 8.967-13.536 8.967-10.607 0-16.282-5.308-16.282-14.637h-25.973c0 22.503 15.913 33.111 41.708 33.111 25.243 0 40.977-11.713 40.977-29.089 0-22.675-18.302-26.886-34.941-31.278-14.089-3.654-19.935-5.302-19.935-11.892 0-5.305 4.385-8.591 12.621-8.591 9.14 0 14.635 4.017 14.635 13.531h24.507c0-20.662-14.63-31.465-38.963-31.465zm55.791-12.437h25.61V326.53h-25.61v21.951zm0 108.29h25.61v-92.925h-25.61v92.925zm91.779-95.122c-11.896 0-21.22 5.681-27.257 13.905h-.368v-11.706h-23.966v92.923h25.612v-49.747c0-16.829 7.682-25.249 18.289-25.249 10.06 0 16.289 6.4 16.289 20.489v54.507h25.609v-57.074c0-25.236-13.362-38.043-34.208-38.043m91.088 79.936c-10.97 0-20.305-6.769-21.036-25.969h66.768c0-10.244-.916-17.381-2.925-23.78-5.853-18.849-21.587-30.923-42.991-30.923-29.081 0-46.099 21.22-46.099 48.667 0 29.628 17.017 50.11 46.283 50.11 24.696 0 40.799-14.078 44.454-31.095h-26.158c-1.284 7.504-8.046 12.99-18.296 12.99zm-.179-62.561c10.245 0 18.653 6.406 20.305 20.489h-40.608c2.014-14.083 9.875-20.489 20.303-20.489zm94.564-18.111c-23.043 0-38.41 11.896-38.41 28.547 0 21.582 16.651 25.235 32.201 29.259 14.446 3.839 21.399 5.491 21.399 13.537 0 5.49-4.57 8.967-13.543 8.967-10.606 0-16.274-5.308-16.274-14.637h-25.974c0 22.503 15.913 33.111 41.708 33.111 25.242 0 40.971-11.713 40.971-29.089 0-22.675-18.289-26.886-34.934-31.278-14.083-3.654-19.942-5.302-19.942-11.892 0-5.305 4.39-8.591 12.621-8.591 9.15 0 14.635 4.017 14.635 13.531h24.513c0-20.662-14.637-31.465-38.965-31.465m90.364 0c-23.05 0-38.416 11.896-38.416 28.547 0 21.582 16.644 25.235 32.195 29.259 14.445 3.839 21.397 5.491 21.397 13.537 0 5.49-4.569 8.967-13.53 8.967-10.607 0-16.287-5.308-16.287-14.637h-25.968c0 22.503 15.913 33.111 41.702 33.111 25.248 0 40.978-11.713 40.978-29.089 0-22.675-18.29-26.886-34.935-31.278-14.089-3.654-19.946-5.302-19.946-11.892 0-5.305 4.396-8.591 12.626-8.591 9.145 0 14.636 4.017 14.636 13.531h24.506c0-20.662-14.631-31.465-38.964-31.465m-578.063 1.035c0-11.193-5.52-22.025-15.079-28.258-8.828-5.698-19.683-7.165-30.163-7.165h-49.696v130.241h11.919v.059h42.553c12.501 0 24.644-1.099 34.762-8.806 9.37-7.159 13.238-17.618 13.238-29.179 0-12.116-9.41-25.219-22.261-29.363 11.033-4.956 14.727-16.881 14.727-27.529zm-24.092 1.462c0 12.305-9.012 16.155-19.682 16.155h-24.254v-32.666h23.712c10.665 0 20.23 4.035 20.23 16.518m6.015 54.87c0 13.214-11.954 17.248-22.992 17.248h-26.965v-36.153h27.062c12.512 0 22.895 4.954 22.895 18.905z"/></g><path fill="url(#l)" d="M131.893-104.107c0-39.205-19.285-77.12-52.7-98.974-30.849-19.913-68.77-25.057-105.396-25.057h-132.015v456.276H-9.513c43.699 0 86.11-3.856 121.459-30.849 32.77-25.063 46.272-61.69 46.272-102.178 0-42.416-32.857-88.309-77.788-102.824 38.56-17.351 51.463-59.124 51.463-96.4M47.7-98.967c0 43.048-31.493 56.556-68.758 56.556h-84.787v-114.391h82.853c37.277 0 70.692 14.134 70.692 57.84M74.03 93.183c0 46.272-41.777 60.407-80.337 60.407h-99.538V26.986h99.889c43.699 0 79.986 17.352 79.986 66.197z" transform="translate(250.333 228.691)" style="display:block"/><g filter="url(#m)" style="display:block" transform="translate(9.509 .304)"><path fill="#D0232E" d="M.25 456.526h82.356V.25H.25v456.276z"/></g></g></svg>