<svg xmlns="http://www.w3.org/2000/svg" viewBox="0 0 374.116 87.864"><defs><style>.a{fill:#001543}.b{fill:#fff}</style></defs><path class="a" d="M116.535 46.575a9.52 9.52 0 0 1-.7-.727q-.364-.416-.676-.779-.363-.441-.726-.908.051.572.13 1.142c.034.329.065.68.09 1.051s.039.714.039 1.026v7.4h-3.4V36.97h.363l8.9 8.359c.208.207.432.45.675.727s.467.537.675.779q.363.441.727.908-.078-.572-.13-1.142-.052-.494-.078-1.051t-.025-1.026v-7.4h3.4v17.81h-.363ZM132.916 51.637a3.378 3.378 0 0 0 1.9.467 4.228 4.228 0 0 0 1.662-.3 6.475 6.475 0 0 0 1.116-.584l2 2.155a7.169 7.169 0 0 1-1.9 1.168 7.269 7.269 0 0 1-2.83.467 7.885 7.885 0 0 1-2.673-.428 6.163 6.163 0 0 1-2.051-1.194 5.112 5.112 0 0 1-1.311-1.83 5.893 5.893 0 0 1-.455-2.337 5.7 5.7 0 0 1 .467-2.311 5.3 5.3 0 0 1 1.3-1.816 6.161 6.161 0 0 1 1.933-1.182 6.6 6.6 0 0 1 2.4-.429 6.277 6.277 0 0 1 2.622.52 5.192 5.192 0 0 1 1.9 1.44 5.924 5.924 0 0 1 1.1 2.168 7.848 7.848 0 0 1 .247 2.7h-8.385a2.355 2.355 0 0 0 .958 1.326Zm3.894-3.349a2.1 2.1 0 0 0-2.31-1.946 2.893 2.893 0 0 0-1.714.479 2.293 2.293 0 0 0-.882 1.467ZM141.068 43.72h3.868l1.272 3.14c.086.244.177.507.273.792s.185.55.272.792l.259.883.26-.883q.13-.363.286-.792a5.181 5.181 0 0 1 .363-.792l1.817-3.426h.26l1.921 3.426q.181.339.363.766t.312.792q.156.467.286.909l.259-.883c.087-.242.173-.506.26-.792a7.661 7.661 0 0 1 .285-.792l1.3-3.14h3.505l-5.166 11.343h-.311l-2.389-4.438a3.039 3.039 0 0 1-.311-.675q-.131-.39-.234-.727-.105-.39-.234-.805-.13.416-.259.805c-.087.243-.178.489-.273.74a5.417 5.417 0 0 1-.3.662l-2.55 4.438h-.285ZM166.3 37.126h11.682v3.192h-8.047v5.608h7.087v3.115h-7.087v2.544h8.411v3.193H166.3ZM186.393 55.012a6.584 6.584 0 0 1-2.4-.428 5.912 5.912 0 0 1-1.921-1.194 5.346 5.346 0 0 1-1.272-1.83 5.893 5.893 0 0 1-.455-2.337 5.829 5.829 0 0 1 .455-2.311 5.215 5.215 0 0 1 1.272-1.816 6 6 0 0 1 1.921-1.182 6.585 6.585 0 0 1 2.4-.429 5.825 5.825 0 0 1 2.739.572 5.978 5.978 0 0 1 1.908 1.635l-2.492 2.025a2.339 2.339 0 0 0-.9-.843 2.543 2.543 0 0 0-1.259-.325 2.262 2.262 0 0 0-1.83.753 2.874 2.874 0 0 0-.636 1.921 3.007 3.007 0 0 0 .636 1.986 2.243 2.243 0 0 0 1.83.766 2.439 2.439 0 0 0 1.337-.325 5.33 5.33 0 0 0 .9-.713l2.362 2.076a6.734 6.734 0 0 1-1.882 1.454 5.89 5.89 0 0 1-2.713.545ZM198.568 55.012a6.588 6.588 0 0 1-2.4-.428 6.173 6.173 0 0 1-1.934-1.182 5.276 5.276 0 0 1-1.3-1.817 5.676 5.676 0 0 1-.468-2.311 5.744 5.744 0 0 1 .468-2.336 5.423 5.423 0 0 1 1.3-1.83 6.041 6.041 0 0 1 1.934-1.194 6.9 6.9 0 0 1 4.79 0 5.877 5.877 0 0 1 1.933 1.194 5.5 5.5 0 0 1 1.285 1.83 5.744 5.744 0 0 1 .468 2.336 5.676 5.676 0 0 1-.468 2.311 5.35 5.35 0 0 1-1.285 1.817 6 6 0 0 1-1.933 1.182 6.628 6.628 0 0 1-2.39.428Zm0-2.959a2.289 2.289 0 0 0 1.83-.766 3.388 3.388 0 0 0 0-4.024 2.292 2.292 0 0 0-1.83-.766 2.332 2.332 0 0 0-1.843.766 3.336 3.336 0 0 0 0 4.024 2.329 2.329 0 0 0 1.843.766ZM207.005 43.72h3.5l-.077 1.816a3.72 3.72 0 0 1 1.428-1.518 4.025 4.025 0 0 1 2.076-.533 3.875 3.875 0 0 1 2.986 1.273 5.187 5.187 0 0 1 1.168 3.635v6.385h-3.5v-6.152a2.085 2.085 0 0 0-.454-1.44 1.772 1.772 0 0 0-1.389-.507 2.293 2.293 0 0 0-1.649.558 2.141 2.141 0 0 0-.584 1.622v5.919h-3.5ZM226.475 55.012a6.6 6.6 0 0 1-2.4-.428 6.179 6.179 0 0 1-1.933-1.182 5.291 5.291 0 0 1-1.3-1.817 5.692 5.692 0 0 1-.467-2.311 5.76 5.76 0 0 1 .467-2.336 5.44 5.44 0 0 1 1.3-1.83 6.047 6.047 0 0 1 1.933-1.194 6.9 6.9 0 0 1 4.791 0 5.857 5.857 0 0 1 1.933 1.194 5.548 5.548 0 0 1 1.286 1.83 5.776 5.776 0 0 1 .466 2.336 5.708 5.708 0 0 1-.466 2.311 5.393 5.393 0 0 1-1.286 1.817 5.981 5.981 0 0 1-1.933 1.182 6.624 6.624 0 0 1-2.391.428Zm0-2.959a2.289 2.289 0 0 0 1.83-.766 3.388 3.388 0 0 0 0-4.024 2.292 2.292 0 0 0-1.83-.766 2.336 2.336 0 0 0-1.844.766 3.34 3.34 0 0 0 0 4.024 2.332 2.332 0 0 0 1.844.766ZM234.912 43.72h3.5l-.078 1.713a4.1 4.1 0 0 1 1.378-1.48 3.394 3.394 0 0 1 1.772-.468 3.292 3.292 0 0 1 3.124 1.9 5.386 5.386 0 0 1 1.6-1.376 4.345 4.345 0 0 1 2.168-.52 4.1 4.1 0 0 1 3.249 1.3 5.24 5.24 0 0 1 1.143 3.582v6.412h-3.506v-6.1a2.493 2.493 0 0 0-.374-1.492 1.579 1.579 0 0 0-1.352-.507 1.881 1.881 0 0 0-1.47.519 2.453 2.453 0 0 0-.464 1.661v5.919h-3.5v-6.1a2.548 2.548 0 0 0-.363-1.492 1.559 1.559 0 0 0-1.35-.507 1.946 1.946 0 0 0-1.493.519 2.4 2.4 0 0 0-.479 1.661v5.919h-3.5ZM257.314 41.876a2.241 2.241 0 0 1-1.57-.609 2.071 2.071 0 0 1-.662-1.6 2.034 2.034 0 0 1 .662-1.57 2.234 2.234 0 0 1 1.57-.611 2.189 2.189 0 0 1 1.558.611 2.058 2.058 0 0 1 .649 1.57 2.1 2.1 0 0 1-.649 1.6 2.2 2.2 0 0 1-1.558.609Zm-1.765 1.844h3.5v11.058h-3.5ZM267.594 55.012a6.588 6.588 0 0 1-2.4-.428 5.922 5.922 0 0 1-1.921-1.194 5.346 5.346 0 0 1-1.272-1.83 5.892 5.892 0 0 1-.454-2.337 5.828 5.828 0 0 1 .454-2.311 5.215 5.215 0 0 1 1.271-1.812 6.015 6.015 0 0 1 1.921-1.182 6.589 6.589 0 0 1 2.4-.429 5.825 5.825 0 0 1 2.739.572 5.978 5.978 0 0 1 1.908 1.635l-2.492 2.025a2.332 2.332 0 0 0-.9-.843 2.54 2.54 0 0 0-1.259-.325 2.262 2.262 0 0 0-1.83.753 2.868 2.868 0 0 0-.635 1.921 3 3 0 0 0 .635 1.986 2.243 2.243 0 0 0 1.83.766 2.442 2.442 0 0 0 1.337-.325 5.329 5.329 0 0 0 .9-.713l2.362 2.076a6.734 6.734 0 0 1-1.882 1.454 5.891 5.891 0 0 1-2.712.541ZM284.547 40.318h-5.037v-3.192h13.706v3.192h-5.036v14.46h-3.633ZM295.162 36.035h3.505v9.424a3.651 3.651 0 0 1 1.388-1.467 3.971 3.971 0 0 1 2.038-.507 3.878 3.878 0 0 1 2.986 1.273 5.187 5.187 0 0 1 1.168 3.635v6.385h-3.505v-6.152a2.085 2.085 0 0 0-.454-1.44 1.772 1.772 0 0 0-1.389-.507 2.287 2.287 0 0 0-1.648.558 2.137 2.137 0 0 0-.584 1.622v5.919h-3.505ZM310.817 41.876a2.241 2.241 0 0 1-1.57-.609 2.071 2.071 0 0 1-.662-1.6 2.034 2.034 0 0 1 .662-1.57 2.234 2.234 0 0 1 1.57-.611 2.19 2.19 0 0 1 1.558.611 2.058 2.058 0 0 1 .649 1.57 2.1 2.1 0 0 1-.649 1.6 2.2 2.2 0 0 1-1.558.609Zm-1.765 1.844h3.5v11.058h-3.5ZM315.438 43.72h3.505l-.078 1.816a3.72 3.72 0 0 1 1.428-1.518 4.026 4.026 0 0 1 2.077-.533 3.874 3.874 0 0 1 2.985 1.273 5.187 5.187 0 0 1 1.168 3.635v6.385h-3.505v-6.152a2.08 2.08 0 0 0-.454-1.44 1.772 1.772 0 0 0-1.389-.507 2.289 2.289 0 0 0-1.648.558 2.137 2.137 0 0 0-.584 1.622v5.919h-3.505ZM332.702 54.778h-3.505V36.035h3.505v9.554q0 .623-.053 1.246t-.129 1.142l3.634-4.257h3.894l-3.919 4.516 4.335 6.542h-4.077l-2.751-4.178-.934.986ZM343.916 41.876a2.243 2.243 0 0 1-1.571-.609 2.075 2.075 0 0 1-.662-1.6 2.037 2.037 0 0 1 .662-1.57 2.236 2.236 0 0 1 1.571-.611 2.186 2.186 0 0 1 1.557.611 2.055 2.055 0 0 1 .65 1.57 2.093 2.093 0 0 1-.65 1.6 2.193 2.193 0 0 1-1.557.609Zm-1.765 1.844h3.5v11.058h-3.5ZM348.537 43.72h3.505l-.078 1.816a3.718 3.718 0 0 1 1.427-1.518 4.031 4.031 0 0 1 2.077-.533 3.878 3.878 0 0 1 2.986 1.273 5.187 5.187 0 0 1 1.168 3.635v6.385h-3.505v-6.152a2.085 2.085 0 0 0-.454-1.44 1.772 1.772 0 0 0-1.389-.507 2.287 2.287 0 0 0-1.648.558 2.137 2.137 0 0 0-.584 1.622v5.919h-3.505ZM372.914 43.693v2.493h-1.636a2.413 2.413 0 0 1 .39 1.349 4.094 4.094 0 0 1-.325 1.636 3.674 3.674 0 0 1-.934 1.3 4.461 4.461 0 0 1-1.467.856 5.585 5.585 0 0 1-1.921.312 5.049 5.049 0 0 1-2.259-.439.823.823 0 0 0-.285.675.779.779 0 0 0 .273.623 1.426 1.426 0 0 0 .869.26l2.726.129a6.512 6.512 0 0 1 3.5 1.025 2.957 2.957 0 0 1 1.221 2.531 3.953 3.953 0 0 1-.338 1.636 3.308 3.308 0 0 1-1.064 1.3 5.5 5.5 0 0 1-1.895.856 10.942 10.942 0 0 1-2.8.312 7.887 7.887 0 0 1-4.465-1.025 3.069 3.069 0 0 1-1.48-2.609 2.1 2.1 0 0 1 .545-1.493 3.943 3.943 0 0 1 1.48-.947 2.386 2.386 0 0 1-1.324-2.233 2.264 2.264 0 0 1 1.531-2.18 3.585 3.585 0 0 1-.986-2.519 3.735 3.735 0 0 1 .351-1.622 3.915 3.915 0 0 1 .973-1.285 4.407 4.407 0 0 1 1.493-.844 5.955 5.955 0 0 1 1.934-.3 6.351 6.351 0 0 1 1.636.208Zm-8.489 12.773a1.238 1.238 0 0 0 .545 1.064 3.652 3.652 0 0 0 2 .39 3.888 3.888 0 0 0 2.025-.351 1.038 1.038 0 0 0 .493-.87.687.687 0 0 0-.376-.662 4.067 4.067 0 0 0-1.467-.246l-2.907-.182a1.275 1.275 0 0 0-.313.857Zm2.544-7.373a1.627 1.627 0 0 0 1.22-.428 1.558 1.558 0 0 0 .415-1.13 1.436 1.436 0 0 0-.415-1.077 2.052 2.052 0 0 0-2.44 0 1.432 1.432 0 0 0-.415 1.077 1.554 1.554 0 0 0 .415 1.13 1.625 1.625 0 0 0 1.22.428ZM0 0h87.863v87.864H0z"/><path class="b" d="M11.936 62.221a1.952 1.952 0 0 1-1.438.521 2.05 2.05 0 0 1-1.463-.537 2.047 2.047 0 0 1-.459-1.6v-3.24h.711v3.319a1.42 1.42 0 0 0 .3 1.115 1.3 1.3 0 0 0 .932.332 1.2 1.2 0 0 0 .869-.324c.355-.356.324-.759.324-1.652v-2.79h.7v2.679c-.002.981.03 1.672-.476 2.177ZM17.492 62.641l-2.49-4.2.016 4.2h-.649v-5.273h.7l2.493 4.211-.016-4.211h.648v5.273ZM20.322 62.641v-5.273h.711v5.273ZM24.986 62.641h-.781l-1.818-5.273h.734l1.494 4.545 1.534-4.545h.687ZM28.219 62.641v-5.273h2.914v.584h-2.221v1.66H31v.571h-2.088v1.857h2.285v.6ZM35.705 62.641l-.607-1.377c-.363-.814-.537-.884-1.248-.884h-.332v2.261h-.7v-5.273h1.174a2.153 2.153 0 0 1 1.676.419 1.434 1.434 0 0 1 .41 1.051 1.271 1.271 0 0 1-.326.91 1.385 1.385 0 0 1-.844.418.73.73 0 0 1 .454.214 2.493 2.493 0 0 1 .41.735l.681 1.526Zm-.56-4.437a1.4 1.4 0 0 0-1.083-.274h-.543v1.889h.243a1.844 1.844 0 0 0 1.353-.316.945.945 0 0 0 .26-.665.924.924 0 0 0-.23-.638ZM39.162 62.749a2.571 2.571 0 0 1-1.621-.567l.34-.492a2.246 2.246 0 0 0 1.248.451.91.91 0 0 0 1.029-.868c0-.579-.646-.863-1.215-1.14-.671-.323-1.252-.669-1.252-1.446a1.485 1.485 0 0 1 1.655-1.422 2.034 2.034 0 0 1 1.5.54l-.356.456a1.745 1.745 0 0 0-1.1-.4c-.58 0-.991.284-.991.76 0 .5.467.683.991.952.464.237 1.5.6 1.5 1.632a1.556 1.556 0 0 1-1.728 1.544ZM42.562 62.641v-5.273h.711v5.273ZM46.906 57.952v4.689h-.711v-4.689h-1.55v-.584h3.8v.584ZM51.518 60.554v2.087h-.7v-2.087l-1.668-3.186h.777l1.285 2.481 1.26-2.481h.715ZM59.084 62.742a2.76 2.76 0 0 1 .041-5.477 2.455 2.455 0 0 1 2.385 2.71 2.484 2.484 0 0 1-2.426 2.767Zm-.006-4.877c-1 0-1.66.846-1.66 2.135s.735 2.134 1.7 2.134c1.1 0 1.666-.941 1.666-2.181-.001-1.253-.704-2.088-1.706-2.088ZM63.899 57.952v1.66h2.025v.571h-2.025v2.458h-.7v-5.273h2.854v.584ZM19.262 73a5.724 5.724 0 0 1-5.854 5.82 5.76 5.76 0 1 1 0-11.519A5.679 5.679 0 0 1 19.262 73Zm-1.885.06c0-3.064-1.457-5.136-3.969-5.136-2.722 0-3.963 2.506-3.963 5.136 0 3.069 1.458 5.151 3.963 5.151 2.731 0 3.969-2.514 3.969-5.151ZM55 73a5.854 5.854 0 1 1-5.853-5.7A5.725 5.725 0 0 1 55 73Zm-1.887.06c0-3.064-1.457-5.136-3.966-5.136-2.727 0-3.963 2.506-3.963 5.136 0 3.069 1.455 5.151 3.963 5.151 2.724 0 3.966-2.514 3.966-5.151ZM59.522 73.1h1.392a2.251 2.251 0 0 0 2.548-2.57 2.2 2.2 0 0 0-1.4-2.168 4.235 4.235 0 0 0-1.7-.248h-.84V73.1Zm2.54 1.829c-.65-.929-.9-1.211-1.7-1.211h-.84v3.72c0 .309.091.463.464.528l1.27.248v.435H56.24v-.435l1.147-.248c.373-.094.461-.219.461-.528V68.7c0-.308-.121-.467-.461-.529l-1.147-.248v-.434h4.893a6.567 6.567 0 0 1 2.324.313 2.934 2.934 0 0 1 1.885 2.698 3.123 3.123 0 0 1-2.723 2.9v.065c.34.154.526.373 1.735 1.957l1.549 2.011a1.248 1.248 0 0 0 .863.592l1.054.184v.435h-2.691c-.312 0-.469-.093-.744-.468l-2.323-3.247ZM40.229 71.337h.527v3.689h-.527l-.217-1.062a.65.65 0 0 0-.713-.559h-2.693v4.033c0 .309.093.463.462.528l1.274.248v.435h-5.02v-.435l1.145-.248c.373-.094.467-.219.467-.528V68.7c0-.308-.123-.467-.467-.529l-1.145-.248v-.434h8.456v2.785h-.526l-.435-1.574a.7.7 0 0 0-.745-.59h-3.466v4.668h2.693a.638.638 0 0 0 .713-.547l.217-.9ZM68.719 78.649v-.435l1.144-.248c.373-.094.465-.219.465-.528V68.7c0-.308-.123-.467-.465-.529l-1.144-.248v-.434h5.236a7.87 7.87 0 0 1 3.278.559 5.406 5.406 0 0 1 3.066 5.074 5.134 5.134 0 0 1-2.631 4.84 7.841 7.841 0 0 1-3.652.683Zm3.254-10.535v9.414c0 .407.092.5.494.5h1.363a4.928 4.928 0 0 0 2.942-.656c1.146-.838 1.64-2.289 1.64-4.217 0-1.885-.494-3.676-2.043-4.578a5.6 5.6 0 0 0-2.789-.465ZM23.662 78.214v.435h-4v-.435l.994-.214a1.456 1.456 0 0 0 .87-.5l3.345-4.271-3.345-4.529a1.409 1.409 0 0 0-.84-.558l-.926-.219v-.434h4.924v.434l-1.053.187c-.34.061-.309.153-.121.4l2.475 3.5h.062l2.57-3.442c.184-.248.184-.371-.095-.433l-.989-.219v-.434h3.993v.434l-.989.219a1.419 1.419 0 0 0-.869.5l-3.185 4 3.556 4.8a1.441 1.441 0 0 0 .84.561l.928.215v.435h-4.926v-.435l1.055-.184c.336-.064.306-.158.125-.408l-2.699-3.776h-.06l-2.756 3.779c-.187.25-.217.313.123.377l.994.215ZM61.928 21.68a1.576 1.576 0 0 0-.7-1.454 2.384 2.384 0 0 0-1.2-.233h-3.607v7.32h3.931c.908 0 1.443.2 1.49 1.019h.09ZM62.562 21.68a1.578 1.578 0 0 1 .695-1.454 2.39 2.39 0 0 1 1.2-.233h3.633v7.32h-3.953c-.91 0-1.444.2-1.49 1.019h-.09Z"/><path class="b" d="M68.893 20.459V28.3h-5.711l-.078.192c-.092.231-.26.443-.854.443s-.762-.212-.853-.443l-.079-.192h-5.695v-7.841h-.619v.2l-.436-.134a.482.482 0 1 0-.162.535l.6.183v.6l-.43-.076a.486.486 0 1 0-.1.548l.529.094v.613L54.553 23a.486.486 0 1 0-.025.557l.476.022v.665l-.467.018a.477.477 0 0 0-.383-.192.484.484 0 1 0 .4.747l.445-.014v.613l-.516.09a.474.474 0 0 0-.341-.145.485.485 0 1 0 .435.693l.422-.073v.6l-.574.176a.484.484 0 1 0 .166.534l.408-.125v.577l-.637.278a.478.478 0 0 0-.271-.07.484.484 0 1 0 .492.584l.42-.183v.571h5.93a1.676 1.676 0 0 0 2.629 0h5.951v-8.464ZM58.362 17.914c-1.193 0-2.162.186-2.162.415s.969.412 2.162.412 2.163-.184 2.163-.412-.968-.415-2.163-.415ZM61.34 15.235l-1.248.878-.012.087.3.133c.059.029.059.076.029.107l-.785.66h-.076l-.555-.82c-.039-.054-.023-.106.043-.118l.373-.059V16l-.966-1.365h-.159L57.317 16v.1l.373.059c.066.012.08.064.043.118l-.557.82h-.074l-.733-.66c-.029-.031-.029-.078.03-.107l.3-.133-.011-.087-1.3-.878-.106.039.764 2.336a9.058 9.058 0 0 1 4.639 0l.765-2.336ZM62.24 33.552c-1.195 0-2.162.186-2.162.415s.967.417 2.162.417 2.161-.187 2.161-.417-.967-.415-2.161-.415ZM65.217 30.874l-1.248.878-.01.089.3.134c.059.029.059.076.029.106l-.783.66-.076-.007-.555-.819c-.037-.052-.025-.106.041-.116l.373-.063v-.093l-.967-1.365h-.159l-.967 1.365v.093l.374.063c.068.01.08.064.043.116l-.557.819-.074.007-.733-.66c-.029-.03-.029-.077.032-.106l.294-.134-.009-.089-1.3-.878-.108.042.764 2.332a9.058 9.058 0 0 1 4.639 0l.765-2.332ZM66.108 17.914c-1.194 0-2.163.186-2.163.415s.969.412 2.163.412 2.164-.184 2.164-.412-.969-.415-2.164-.415ZM69.084 15.235l-1.246.878-.012.087.3.133c.059.029.059.076.03.107l-.784.66h-.074l-.557-.82c-.037-.054-.021-.106.041-.118l.375-.059V16l-.964-1.365h-.161L65.062 16v.1l.375.059c.066.012.082.064.041.118l-.553.82h-.074l-.735-.669c-.031-.028-.031-.075.03-.106l.3-.125-.01-.087-1.3-.878-.1.039.761 2.336a9.058 9.058 0 0 1 4.639 0l.764-2.336ZM62.668 8.957a.445.445 0 1 1-.445-.442.445.445 0 0 1 .445.442ZM73.022 13.091a.444.444 0 1 1-.422-.467.446.446 0 0 1 .422.467Z"/><path class="a" d="M57.344 21.118a.655.655 0 0 1 .469.144.454.454 0 0 1 .138.332c0 .4-.3.573-.677.573h-.412V22.1c.119-.009.13-.021.13-.195v-.534c0-.173-.011-.185-.119-.194v-.063Zm-.08.791c0 .145.035.172.111.172.143 0 .279-.154.279-.438 0-.346-.173-.443-.31-.443a.181.181 0 0 0-.07.01c-.01 0-.01.042-.01.082ZM59.176 21.631a.527.527 0 0 1-.547.561.517.517 0 0 1-.535-.534.543.543 0 0 1 .559-.564.512.512 0 0 1 .523.537Zm-.783-.027c0 .292.111.5.269.5.139 0 .213-.134.213-.425 0-.328-.115-.505-.256-.505-.123.004-.226.144-.226.426ZM60.6 21.118v.063c-.121.011-.127.019-.123.187l.015.541c0 .18.01.184.125.195v.063h-.506V22.1c.122-.011.125-.015.125-.195v-.568h-.008l-.313.808h-.086l-.3-.751-.01.359a1.306 1.306 0 0 0 0 .264c.006.06.043.074.146.083v.063h-.4V22.1c.076 0 .109-.023.119-.083s.017-.135.023-.282l.018-.327c.012-.2 0-.22-.129-.231v-.063h.379l.285.639.246-.639ZM61.125 21.909c0 .174.012.186.123.195v.063h-.521V22.1c.111-.009.123-.021.123-.195v-.534c0-.173-.012-.185-.123-.194v-.063h.521v.063c-.111.009-.123.021-.123.194ZM58.526 24.116h-.139l-.6-.762h-.006v.3a2.039 2.039 0 0 0 .016.307c.008.057.053.079.158.082v.057h-.4v-.065c.072 0 .113-.025.121-.082a2.283 2.283 0 0 0 .012-.307v-.3c0-.121 0-.14-.036-.185s-.062-.045-.123-.051v-.063h.36l.535.67V23.5a2.183 2.183 0 0 0-.014-.308c-.006-.056-.051-.076-.158-.082v-.063h.412v.063c-.08 0-.121.026-.131.082a2.654 2.654 0 0 0-.013.308ZM59.18 24.116c-.113-.292-.264-.69-.32-.844-.055-.138-.086-.146-.163-.154v-.063h.522v.063l-.057.006c-.06 0-.06.02-.043.076.03.092.159.408.217.568.051-.137.154-.447.18-.521.033-.1.023-.118-.049-.123l-.049-.006v-.063h.391v.063c-.09.011-.114.018-.178.166-.01.024-.205.5-.326.832ZM59.908 23.771c.032.092.129.273.287.273a.145.145 0 0 0 .149-.161c0-.094-.063-.149-.162-.193l-.024-.012c-.13-.059-.283-.144-.283-.317a.341.341 0 0 1 .387-.331.494.494 0 0 1 .148.02c.035.01.063.015.082.021.006.063.02.145.037.254l-.072.01c-.035-.107-.092-.221-.217-.221a.138.138 0 0 0-.142.141c0 .08.062.127.166.174l.035.016c.148.068.277.151.277.34s-.16.343-.41.343a.562.562 0 0 1-.174-.027c-.049-.018-.084-.03-.1-.039-.016-.075-.035-.162-.055-.271ZM57.809 25.782c0 .173.011.183.123.2v.06h-.522v-.06c.112-.014.125-.024.125-.2v-.534c0-.173-.013-.185-.125-.195v-.063h.522v.063c-.112.01-.123.022-.123.195ZM58.447 25.8c0 .085 0 .124.032.139a.293.293 0 0 0 .113.014.2.2 0 0 0 .156-.047.422.422 0 0 0 .08-.158l.069.01c-.01.062-.045.23-.059.279h-.8v-.06c.121-.014.133-.024.133-.2v-.534c0-.173-.012-.185-.121-.195v-.058h.527v.063c-.117.01-.131.022-.131.195ZM59.35 25.8c0 .085 0 .124.031.139a.277.277 0 0 0 .111.014.2.2 0 0 0 .157-.047.455.455 0 0 0 .08-.158l.068.01c-.01.062-.045.23-.059.279h-.8v-.06c.121-.014.134-.024.134-.2v-.534c0-.173-.013-.185-.121-.195v-.058h.524v.063c-.116.01-.127.022-.127.195ZM60.117 26.049c-.107-.289-.261-.687-.32-.838s-.084-.148-.164-.158v-.063h.523v.063l-.054.008c-.061 0-.061.019-.043.076.029.092.156.409.219.566.048-.136.152-.445.177-.519.033-.1.024-.12-.051-.126l-.042-.005v-.063h.39v.063c-.092.011-.115.019-.178.168-.009.022-.205.5-.326.828ZM64.574 21.153v.065c-.121.01-.129.016-.123.184l.014.542c.006.178.01.184.127.2v.056h-.5v-.06c.121-.012.125-.018.123-.2l-.006-.569h-.006l-.31.81h-.088l-.3-.752-.014.358a1.974 1.974 0 0 0 0 .267c.008.06.041.072.149.082v.064h-.4v-.06c.078-.008.108-.022.118-.082s.017-.135.025-.285l.019-.324c.01-.2 0-.221-.13-.231v-.065h.379l.283.638.248-.638ZM65.098 21.944c0 .174.013.186.127.2v.056h-.524v-.06c.112-.01.123-.022.123-.2v-.53c0-.173-.011-.185-.123-.192v-.065h.524v.065c-.114.007-.127.019-.127.192ZM66.301 22.214h-.139l-.6-.761v.3a2.663 2.663 0 0 0 .013.309c.006.054.051.078.159.082v.056h-.4v-.06c.069 0 .111-.028.117-.082a2.073 2.073 0 0 0 .016-.309v-.3c0-.119-.006-.141-.037-.186s-.065-.044-.121-.049v-.065h.353l.537.67V21.6a2.567 2.567 0 0 0-.011-.306c-.008-.057-.049-.076-.157-.081v-.065h.41v.065c-.082 0-.123.024-.13.081a2.287 2.287 0 0 0-.012.306ZM66.973 22.14l.051-.008c.058-.006.064-.024.041-.082l-.059-.164h-.264l-.049.154c-.021.07-.021.088.055.1h.045v.06h-.373v-.06c.08-.012.106-.02.158-.154l.323-.833.109-.025.111.308.2.545c.051.139.079.149.161.159v.06h-.51Zm-.2-.351h.205l-.1-.306ZM64.562 23.881c0 .173.011.185.148.195v.062h-.564v-.062c.129-.01.14-.022.14-.195v-.708h-.024c-.107 0-.15.019-.178.051a.4.4 0 0 0-.058.155h-.069c.006-.136.016-.247.022-.329h.049c.025.037.039.039.084.039h.642c.043 0 .051-.01.078-.039h.049c0 .066.01.2.018.324h-.073a.33.33 0 0 0-.064-.165.211.211 0 0 0-.158-.041h-.042ZM65.408 23.881c0 .173.012.185.123.195v.062h-.521v-.062c.111-.01.123-.022.123-.195v-.534c0-.174-.012-.184-.123-.194v-.064h.521v.064c-.111.01-.123.02-.123.194ZM66.748 23.6a.528.528 0 0 1-.545.561.518.518 0 0 1-.539-.534.545.545 0 0 1 .563-.564.51.51 0 0 1 .521.537Zm-.781-.028c0 .291.109.505.268.505.138 0 .214-.134.214-.426 0-.324-.117-.5-.256-.5-.123-.002-.226.141-.226.423ZM65.039 25.025v.065c-.123.01-.131.018-.125.185l.016.542c.006.177.008.183.125.195v.062h-.506v-.062c.121-.012.127-.018.125-.195l-.006-.569-.312.809h-.094l-.3-.751-.012.357a1.563 1.563 0 0 0 .006.265c0 .062.039.074.145.084v.062h-.4v-.062c.076-.007.106-.022.115-.084a2.1 2.1 0 0 0 .028-.282l.017-.324c.012-.2 0-.222-.129-.232v-.065h.379l.284.638.246-.638ZM65.289 25.282c0-.173-.011-.184-.121-.192v-.065h.764c0 .028.01.147.017.267l-.068.006a.307.307 0 0 0-.063-.152c-.025-.027-.076-.037-.164-.037h-.027c-.06 0-.062 0-.062.058v.311h.078c.14 0 .146-.01.16-.133h.072v.381h-.072c-.014-.141-.02-.151-.16-.151h-.081v.262c0 .084 0 .124.031.138a.235.235 0 0 0 .113.015.253.253 0 0 0 .172-.047.493.493 0 0 0 .076-.168l.072.012a2.284 2.284 0 0 1-.056.287h-.822v-.062c.127-.01.138-.022.138-.195ZM66.596 26.012l.049-.012c.058-.007.06-.025.041-.081l-.059-.166h-.265l-.046.156c-.022.069-.022.086.052.094h.047v.062h-.375v-.062c.084-.012.106-.018.16-.153l.325-.836.108-.014.109.307.2.546c.049.14.081.148.159.158v.062h-.506Zm-.207-.351h.209l-.1-.308h-.006Z"/><path class="b" d="M60.77 39.358a.445.445 0 1 1-.444-.442.443.443 0 0 1 .444.442ZM65.135 40.075a.444.444 0 1 1-.442-.444.442.442 0 0 1 .442.444ZM48.389 15.879ZM65.653 11.017ZM66.485 8.1ZM73.43 16.652ZM78.299 26.277ZM76.778 30.654ZM50.362 31a1.16 1.16 0 0 1 .946.559 1.276 1.276 0 0 1 .256.724c0 .436-.213.689-.721 1.044l-1.352.954-.367-.523 1.515-1.058a.644.644 0 0 0 .326-.467.551.551 0 0 0-.117-.356.5.5 0 0 0-.436-.248c-.16 0-.314.1-.638.325l-1.311.855-.357-.507 1.392-.912a1.516 1.516 0 0 1 .864-.39ZM47.962 29.769l1.848-.725.2.517-2.793 1.084-.2-.542 1.443-1.84-1.861.652-.2-.546 2.82-.984.185.512ZM45.953 26.055l2.965-.452.1.631-2.967.451ZM48.813 23.633l-3.043.913.027-.646 2.283-.612-2.22-.819.025-.626 2.955 1.17ZM46.203 20.219l.5-1.749.492.14-.324 1.143.67.191.307-1.074.484.139-.3 1.073.734.211.334-1.178.5.141-.506 1.784ZM50.785 16.854l-.888-.081c-.422-.039-.461.063-.58.276l-.036.06 1.055.562-.312.557-2.639-1.445.433-.759c.2-.35.4-.722.93-.722a.768.768 0 0 1 .735 1.06.6.6 0 0 1 .529-.194c.109 0 .215.017.3.024l.8.073Zm-2.215-.911c-.154.044-.232.162-.347.369l-.1.167.729.394.123-.221a.514.514 0 0 0 .09-.421.483.483 0 0 0-.211-.248.382.382 0 0 0-.284-.04ZM52.115 10.944l.51-.384 1.805 2.4-.508.385ZM55.481 9.456l1.14 2.211-.566.3-1.141-2.216-.73.376-.235-.456 2.028-1.045.232.456ZM58.996 9.616l.289 1.16-.593.149-.289-1.16-1.356-1.523.631-.156.894 1.047.3-1.346.6-.148ZM69.862 10.694l.945.566-.256.432-.947-.564-.658 1.1-.541-.322 1.535-2.578 1.539.917-.264.44-1-.6ZM75.25 20.443l.82-.9-1.191-.281-.2-.626 1.771.462 1.112-1.298.2.657-.762.834 1.107.265.192.613-1.647-.44-1.2 1.373-.205-.654ZM78.121 22.582l-.7.057.074 1.109-.5.033-.074-1.1-1.283.086-.045-.6 3-.246.119 1.806-.512.035-.076-1.178Z"/><path class="b" d="M80.231 24.057A17.994 17.994 0 0 0 49.962 10.8a17.936 17.936 0 0 0 1.988 27.833 4.411 4.411 0 0 0 5.981 3.017c.576.18 1.166.337 1.756.459a8.948 8.948 0 0 1-.729 1.474l.432.431a.639.639 0 0 1 .988.529.629.629 0 0 1-.687.639.831.831 0 0 1-.752-.507 2.966 2.966 0 0 0-.116.806c0 1.335 1.452 2.8 3.393 3.419 1.951-.61 3.4-2.084 3.4-3.419a2.9 2.9 0 0 0-.119-.806.83.83 0 0 1-.752.507.628.628 0 0 1-.685-.639.616.616 0 0 1 .642-.633.6.6 0 0 1 .344.1l.4-.394.009-.006.018-.021h.006V43.571a8.61 8.61 0 0 1-.436-1.294 13.4 13.4 0 0 0 8.1-4.082l-.006-.005a17.806 17.806 0 0 0 7.094-14.133ZM56.219 41.384a3.774 3.774 0 0 1-3.305-5.567c.194.173.4.357.612.539a2.933 2.933 0 0 0-.29 1.269 3.049 3.049 0 0 0 1.647 2.7 14.078 14.078 0 0 0 2.082.987 3.867 3.867 0 0 1-.746.072Zm6.025-5.507a12.065 12.065 0 0 1-2.076-.181 4.417 4.417 0 0 0-3.949-2.458 4.367 4.367 0 0 0-1.234.179 11.957 11.957 0 1 1 7.259 2.46Zm2.553.346a4.321 4.321 0 0 0-.566 1.805 18.672 18.672 0 0 1-2.963-1.06.92.92 0 0 1 .888-.488h.088a12.54 12.54 0 0 0 2.553-.257Zm-3.826.195a1.33 1.33 0 0 0-.246.292c-.387-.163-1.125-.507-1.367-.653a10.979 10.979 0 0 0 1.613.361Zm-4.752-2.576a3.782 3.782 0 0 1 3.127 1.68 11.581 11.581 0 0 1-1.785-.6v.005l-.018-.01a2.99 2.99 0 0 0-1.291-.29 3.021 3.021 0 0 0-2.437 1.242 19.924 19.924 0 0 1-.684-.4 3.748 3.748 0 0 1 3.088-1.627Zm8.424 9.508a1.221 1.221 0 1 0 .041 2.442 1.351 1.351 0 0 0 .254-.026 4.1 4.1 0 0 1-2.725 2.477 4.142 4.142 0 0 1-2.721-2.477 1.313 1.313 0 0 0 .252.026 1.221 1.221 0 1 0 .041-2.442 7.787 7.787 0 0 0 .516-1.125 14.331 14.331 0 0 0 2.357.215c.6 0 1.184-.033 1.754-.089.078.295.262.858.311 1-.026.002-.049-.001-.08-.001Zm-1.981-1.516a15.967 15.967 0 0 1-7.439-2.025 2.5 2.5 0 0 1-1.344-2.184 2.445 2.445 0 0 1 .154-.845 16.5 16.5 0 0 0 2.077 1.508.576.576 0 0 0 .324.1.6.6 0 0 0 .6-.6.588.588 0 0 0-.366-.556c-.429-.191-1.322-.559-2.291-1.055a2.365 2.365 0 0 1 2.891-.711l.652.382c2.08 1.267 7.393 4.511 13.832 2.828a13.225 13.225 0 0 1-9.09 3.158Zm10.059-4.1a14.137 14.137 0 0 1-7.863.443c.074-.984.441-2.075 1.049-2.239a12.6 12.6 0 1 0-11.588-2.264 4.444 4.444 0 0 0-1.707 1.453c-.2-.143-.4-.291-.59-.444l-.119.119c.129.155.318.35.548.576a4.3 4.3 0 0 0-.623 2.232c0 .058.008.112.01.168a17.346 17.346 0 1 1 20.883-.044Z"/><path class="b" d="M52.662 14.167a1.158 1.158 0 0 1-.338.771 1.442 1.442 0 0 1-.937.515l-.131-.5a1.3 1.3 0 0 0 .65-.351.553.553 0 0 0 .164-.356.315.315 0 0 0-.322-.324c-.261 0-.7.379-1.144.379a.756.756 0 0 1-.561-.209.834.834 0 0 1-.281-.628 1.118 1.118 0 0 1 .324-.739 1.375 1.375 0 0 1 .879-.475l.109.487a1.149 1.149 0 0 0-.582.3.535.535 0 0 0-.16.347.258.258 0 0 0 .27.267c.215 0 .754-.393 1.193-.393a.727.727 0 0 1 .559.225.9.9 0 0 1 .308.684ZM66.485 11.147a1.44 1.44 0 0 1-1.461-1.459A1.594 1.594 0 0 1 66.504 8a1.432 1.432 0 0 1 1.49 1.429 1.638 1.638 0 0 1-1.509 1.718Zm.871-1.728a.983.983 0 0 0-.172-.591.744.744 0 0 0-.6-.3c-.537 0-.932.669-.932 1.221a.8.8 0 0 0 .809.857c.611 0 .895-.789.895-1.187ZM74.809 17.56a1.5 1.5 0 0 1-1.416-1.471 1.768 1.768 0 0 1 1.717-1.578A1.507 1.507 0 0 1 76.531 16a1.736 1.736 0 0 1-1.722 1.56Zm-.108-.609c.526 0 1.258-.454 1.258-1.07a.742.742 0 0 0-.748-.752c-.492 0-1.244.438-1.244 1.059a.755.755 0 0 0 .734.763ZM75.399 26.4a1.422 1.422 0 0 1 1.5-1.468 1.516 1.516 0 0 1 1.65 1.444 1.42 1.42 0 0 1-1.482 1.5 1.544 1.544 0 0 1-1.668-1.476Zm1.7.831a.835.835 0 0 0 .922-.8c0-.572-.663-.861-1.168-.861a.822.822 0 0 0-.92.824c.003.62.768.837 1.169.837ZM74.262 29.937h.893c.423 0 .455-.1.554-.322l.03-.066-1.073-.5.256-.569 2.719 1.253-.35.782c-.236.527-.441.79-.939.79a.789.789 0 0 1-.785-.756.906.906 0 0 1 .037-.24c-.162.277-.565.238-.815.238h-.8Zm1.742.336a.415.415 0 0 0 .4.411c.194 0 .313-.1.426-.356l.094-.224-.742-.347-.123.277a.556.556 0 0 0-.059.239ZM72.43 33.255a2.039 2.039 0 0 1 .646-1.39l.389-.479 2.328 1.9-.523.642a1.657 1.657 0 0 1-1.311.807 1.531 1.531 0 0 1-.949-.368 1.5 1.5 0 0 1-.58-1.112Zm1.6.881c.317 0 .5-.1.864-.541l.113-.139-1.545-1.256-.191.234a1.085 1.085 0 0 0-.282.672 1 1 0 0 0 .436.781.94.94 0 0 0 .606.249Z"/><path class="a" d="M117.762 76.063h-1.316l-.854-2.435h-3.85l-.854 2.435h-1.26l3.388-9.337h1.33Zm-2.52-3.458-1.58-4.549-1.568 4.549ZM126.248 67.762h-2.73v8.3h-1.256v-8.3h-2.744v-1.036h6.734ZM141.83 67.762h-2.73v8.3h-1.26v-8.3h-2.744v-1.036h6.734ZM152.526 76.063h-1.264V71.71h-4.28v4.353h-1.261v-9.337h1.261v3.92h4.28v-3.92h1.26ZM162.409 76.063h-5.278v-9.337h5.166v1.036h-3.935V70.7h3.7v1.01h-3.7V75h4.046ZM180.4 71.346a5.154 5.154 0 0 1-1.2 3.542 3.94 3.94 0 0 1-3.1 1.357 3.882 3.882 0 0 1-3.046-1.357 5.057 5.057 0 0 1-1.2-3.473 5.121 5.121 0 0 1 1.2-3.514 3.96 3.96 0 0 1 3.116-1.357 3.865 3.865 0 0 1 3.044 1.344 5.039 5.039 0 0 1 1.186 3.458Zm-1.289-.042a4.073 4.073 0 0 0-.839-2.682 2.7 2.7 0 0 0-2.184-1.014 2.571 2.571 0 0 0-2.136 1.036 4.353 4.353 0 0 0-.8 2.744 4.183 4.183 0 0 0 .854 2.729 2.662 2.662 0 0 0 2.155 1.05 2.574 2.574 0 0 0 2.212-1.105 4.682 4.682 0 0 0 .738-2.762ZM190.857 76.063h-1.386l-2.338-3.863-2.324 3.864h-1.33l3-4.843-2.8-4.494h1.414l2.1 3.542 2.114-3.542h1.316l-2.786 4.494ZM199.762 67.762h-3.808V70.7h3.584v1.01h-3.584v4.353h-1.246v-9.337h5.054ZM211.955 71.346a5.155 5.155 0 0 1-1.2 3.542 3.939 3.939 0 0 1-3.1 1.357 3.882 3.882 0 0 1-3.046-1.357 5.062 5.062 0 0 1-1.2-3.473 5.126 5.126 0 0 1 1.2-3.514 3.96 3.96 0 0 1 3.116-1.357 3.869 3.869 0 0 1 3.045 1.344 5.043 5.043 0 0 1 1.185 3.458Zm-1.293-.046a4.073 4.073 0 0 0-.84-2.682 2.7 2.7 0 0 0-2.184-1.014 2.571 2.571 0 0 0-2.136 1.036 4.353 4.353 0 0 0-.8 2.744 4.183 4.183 0 0 0 .854 2.729 2.664 2.664 0 0 0 2.156 1.05 2.574 2.574 0 0 0 2.211-1.105 4.682 4.682 0 0 0 .739-2.758ZM222.58 76.063h-1.318l-1.078-2.435a3.263 3.263 0 0 0-.868-1.33 2.651 2.651 0 0 0-1.344-.238h-.588v4h-1.232v-9.334h2.072a11.1 11.1 0 0 1 1.666.084 2.439 2.439 0 0 1 1.3.658 2.52 2.52 0 0 1 .728 1.861 2.284 2.284 0 0 1-.588 1.624 2.309 2.309 0 0 1-1.484.729 1.157 1.157 0 0 1 .8.378 5.109 5.109 0 0 1 .728 1.3Zm-1.9-6.734a1.51 1.51 0 0 0-.406-1.119 1.6 1.6 0 0 0-.868-.435 6.625 6.625 0 0 0-1.05-.055h-.966v3.345h.434a10.527 10.527 0 0 0 1.316-.055 1.917 1.917 0 0 0 1.078-.5 1.6 1.6 0 0 0 .458-1.181ZM234.089 71.331a4.7 4.7 0 0 1-1.327 3.469 4.051 4.051 0 0 1-1.946 1.078 11.384 11.384 0 0 1-2.351.181h-2.045v-9.333h2.058a11.547 11.547 0 0 1 2.394.181 3.7 3.7 0 0 1 1.89 1.008 4.625 4.625 0 0 1 1.327 3.416Zm-1.274-.027a3.633 3.633 0 0 0-1-2.689 2.753 2.753 0 0 0-1.372-.742 9.886 9.886 0 0 0-1.974-.14h-.807v7.308h1.162a7.062 7.062 0 0 0 1.639-.153 2.94 2.94 0 0 0 1.414-.8 3.843 3.843 0 0 0 .938-2.788ZM254.038 76.063h-1.232l-.77-7.545-2.646 7.545h-1.036l-2.7-7.545-.714 7.545h-1.134l.994-9.337h1.386l2.759 7.629 2.673-7.629h1.387ZM265.672 76.063h-1.316l-.854-2.435h-3.85l-.854 2.435h-1.26l3.388-9.337h1.33Zm-2.52-3.458-1.582-4.549-1.568 4.549ZM275.753 76.063h-1.316l-1.075-2.435a3.273 3.273 0 0 0-.869-1.33 2.646 2.646 0 0 0-1.343-.238h-.588v4h-1.233v-9.334h2.073a11.111 11.111 0 0 1 1.666.084 2.44 2.44 0 0 1 1.3.658 2.516 2.516 0 0 1 .728 1.861 2.28 2.28 0 0 1-.588 1.624 2.307 2.307 0 0 1-1.483.729 1.153 1.153 0 0 1 .8.378 5.078 5.078 0 0 1 .728 1.3Zm-1.9-6.734a1.514 1.514 0 0 0-.4-1.119 1.607 1.607 0 0 0-.869-.435 6.611 6.611 0 0 0-1.049-.055h-.973v3.345h.433a10.545 10.545 0 0 0 1.317-.055 1.914 1.914 0 0 0 1.077-.5 1.6 1.6 0 0 0 .459-1.181ZM285.398 67.762h-2.73v8.3h-1.26v-8.3h-2.746v-1.036h6.734ZM290.55 76.063h-1.26v-9.337h1.26ZM301.932 76.063h-1.246l-4.41-7.433.028 7.433h-1.149v-9.337h1.246l4.411 7.462-.028-7.462h1.148ZM317.612 73.529a2.558 2.558 0 0 1-.826 1.96 3.152 3.152 0 0 1-2.24.771 4.629 4.629 0 0 1-2.016-.462 3.174 3.174 0 0 1-.855-.546l.6-.868a4.047 4.047 0 0 0 2.212.8 1.917 1.917 0 0 0 1.33-.442 1.419 1.419 0 0 0 .49-1.1 1.5 1.5 0 0 0-.728-1.2 11.422 11.422 0 0 0-1.47-.813 5.962 5.962 0 0 1-1.526-.979 2.156 2.156 0 0 1-.644-1.583 2.287 2.287 0 0 1 .818-1.813 3.114 3.114 0 0 1 2.108-.706 4.226 4.226 0 0 1 1.946.434 2.659 2.659 0 0 1 .714.517l-.63.813a3.02 3.02 0 0 0-1.946-.7 2.046 2.046 0 0 0-1.267.364 1.186 1.186 0 0 0 .049 1.945 11.521 11.521 0 0 0 1.218.673 12.872 12.872 0 0 1 1.637.937 2.493 2.493 0 0 1 1.026 1.998ZM329.091 75.266a2.914 2.914 0 0 1-.895.532 5.6 5.6 0 0 1-2.24.447 4.278 4.278 0 0 1-3.178-1.26 4.776 4.776 0 0 1-1.3-3.513 4.926 4.926 0 0 1 1.372-3.641 4.437 4.437 0 0 1 3.29-1.3 5.213 5.213 0 0 1 2.086.393 2.577 2.577 0 0 1 .784.475l-.545.869a4.165 4.165 0 0 0-2.254-.63 3.253 3.253 0 0 0-2.436.994 3.713 3.713 0 0 0-1.009 2.729 4 4 0 0 0 .9 2.745 3.1 3.1 0 0 0 2.443 1.021 5.142 5.142 0 0 0 2.436-.728ZM339.705 76.063h-1.261V71.71h-4.282v4.353h-1.26v-9.337h1.26v3.92h4.284v-3.92h1.261ZM352.443 71.346a5.158 5.158 0 0 1-1.2 3.542 3.943 3.943 0 0 1-3.1 1.357 3.882 3.882 0 0 1-3.045-1.357 5.058 5.058 0 0 1-1.2-3.473 5.122 5.122 0 0 1 1.2-3.514 3.957 3.957 0 0 1 3.115-1.357 3.867 3.867 0 0 1 3.045 1.344 5.038 5.038 0 0 1 1.185 3.458Zm-1.287-.042a4.068 4.068 0 0 0-.841-2.682 2.7 2.7 0 0 0-2.184-1.014 2.567 2.567 0 0 0-2.134 1.036 4.347 4.347 0 0 0-.806 2.744 4.184 4.184 0 0 0 .855 2.729 2.664 2.664 0 0 0 2.156 1.05 2.578 2.578 0 0 0 2.212-1.105 4.689 4.689 0 0 0 .742-2.762ZM364.777 71.346a5.158 5.158 0 0 1-1.2 3.542 3.943 3.943 0 0 1-3.1 1.357 3.882 3.882 0 0 1-3.045-1.357 5.058 5.058 0 0 1-1.2-3.473 5.122 5.122 0 0 1 1.2-3.514 3.957 3.957 0 0 1 3.115-1.357 3.867 3.867 0 0 1 3.045 1.344 5.038 5.038 0 0 1 1.185 3.458Zm-1.287-.042a4.068 4.068 0 0 0-.841-2.682 2.7 2.7 0 0 0-2.184-1.014 2.567 2.567 0 0 0-2.134 1.036 4.347 4.347 0 0 0-.806 2.744 4.183 4.183 0 0 0 .855 2.729 2.664 2.664 0 0 0 2.156 1.05 2.578 2.578 0 0 0 2.212-1.105 4.689 4.689 0 0 0 .742-2.762ZM374.116 76.063h-5.139v-9.337h1.26V75h3.879ZM111.941 9.749h1.895V27.4h-1.895ZM118.119 16.654h1.818l-.052 2.206a3.97 3.97 0 0 1 1.531-1.8 4.3 4.3 0 0 1 2.337-.637 3.838 3.838 0 0 1 2.907 1.169 4.542 4.542 0 0 1 1.116 3.27V27.4h-1.814v-6.333a3.314 3.314 0 0 0-.662-2.207 2.5 2.5 0 0 0-2.012-.778 3.136 3.136 0 0 0-3.348 3.4V27.4h-1.818ZM135.123 27.609a5.305 5.305 0 0 1-2.933-.74 4.614 4.614 0 0 1-1.662-1.752l1.4-.8a4.226 4.226 0 0 0 1.207 1.3 3.249 3.249 0 0 0 1.908.519 2.869 2.869 0 0 0 1.688-.428 1.376 1.376 0 0 0 .6-1.181 1.333 1.333 0 0 0-.181-.727 1.556 1.556 0 0 0-.533-.493 4.335 4.335 0 0 0-.869-.377q-.519-.168-1.22-.376-.624-.182-1.22-.415a3.77 3.77 0 0 1-1.039-.6 2.669 2.669 0 0 1-.986-2.18 2.543 2.543 0 0 1 1.025-2.167 4.067 4.067 0 0 1 2.505-.767 4.49 4.49 0 0 1 2.129.468 4.125 4.125 0 0 1 1.454 1.271l-1.246.961a3.115 3.115 0 0 0-.987-.9 2.69 2.69 0 0 0-1.35-.325 2.219 2.219 0 0 0-1.375.376 1.2 1.2 0 0 0-.494 1 1.44 1.44 0 0 0 .13.649 1.179 1.179 0 0 0 .428.454 3.568 3.568 0 0 0 .792.363q.494.169 1.194.377a13.627 13.627 0 0 1 1.324.429 4.474 4.474 0 0 1 1.142.623 2.9 2.9 0 0 1 .792.921 2.719 2.719 0 0 1 .3 1.324 3.028 3.028 0 0 1-.948 2.284 4.163 4.163 0 0 1-2.975.909ZM145.428 27.635a3.478 3.478 0 0 1-1.146-.182 2.293 2.293 0 0 1-.919-.6 2.874 2.874 0 0 1-.618-1.077 5.086 5.086 0 0 1-.224-1.623v-5.97h-1.659v-1.529h1.661v-5.607h1.817v5.607h3.011v1.532h-3.011v6a2.346 2.346 0 0 0 .337 1.479 1.171 1.171 0 0 0 .935.39 1.683 1.683 0 0 0 .87-.2 3.769 3.769 0 0 0 .584-.427l.986 1.141a4.4 4.4 0 0 1-1 .714 3.324 3.324 0 0 1-1.624.352ZM151.581 13.539a1.316 1.316 0 0 1-.909-.351 1.181 1.181 0 0 1-.389-.921 1.226 1.226 0 0 1 .389-.935 1.318 1.318 0 0 1 1.817 0 1.223 1.223 0 0 1 .39.935 1.179 1.179 0 0 1-.39.921 1.312 1.312 0 0 1-.908.351Zm-.909 3.115h1.817V27.4h-1.817ZM159.914 27.635a3.479 3.479 0 0 1-1.147-.182 2.29 2.29 0 0 1-.918-.6 2.889 2.889 0 0 1-.619-1.077 5.114 5.114 0 0 1-.224-1.623v-5.97h-1.661v-1.529h1.661v-5.607h1.817v5.607h3.012v1.532h-3.012v6a2.345 2.345 0 0 0 .338 1.479 1.168 1.168 0 0 0 .934.39 1.681 1.681 0 0 0 .87-.2 3.769 3.769 0 0 0 .584-.427l.987 1.141a4.429 4.429 0 0 1-1 .714 3.323 3.323 0 0 1-1.622.352ZM169.026 27.635a3.86 3.86 0 0 1-2.908-1.156 4.454 4.454 0 0 1-1.116-3.231v-6.594h1.817v6.412a3.164 3.164 0 0 0 .662 2.155 2.5 2.5 0 0 0 1.986.753 3.3 3.3 0 0 0 2.44-.909 3.366 3.366 0 0 0 .909-2.492v-5.919h1.817V27.4h-1.817l.052-2.18a4.031 4.031 0 0 1-1.519 1.78 4.233 4.233 0 0 1-2.323.635ZM182.005 27.635a3.478 3.478 0 0 1-1.146-.182 2.283 2.283 0 0 1-.918-.6 2.862 2.862 0 0 1-.619-1.077 5.085 5.085 0 0 1-.224-1.623v-5.97h-1.661v-1.529h1.661v-5.607h1.817v5.607h3.011v1.532h-3.011v6a2.338 2.338 0 0 0 .338 1.479 1.168 1.168 0 0 0 .934.39 1.683 1.683 0 0 0 .87-.2 3.771 3.771 0 0 0 .584-.427l.987 1.141a4.43 4.43 0 0 1-1 .714 3.324 3.324 0 0 1-1.623.352ZM189.404 25.13a3.942 3.942 0 0 0 2.8.947 4.556 4.556 0 0 0 2.051-.415 4.3 4.3 0 0 0 1.35-1.013l1.116 1.091a5.839 5.839 0 0 1-1.843 1.35 6.192 6.192 0 0 1-2.674.519 6.456 6.456 0 0 1-2.4-.428 5.206 5.206 0 0 1-3-2.959 5.77 5.77 0 0 1-.416-2.195 5.644 5.644 0 0 1 .428-2.193 5.741 5.741 0 0 1 1.169-1.791 5.2 5.2 0 0 1 1.765-1.194 5.627 5.627 0 0 1 2.193-.429 5.538 5.538 0 0 1 2.324.468 4.849 4.849 0 0 1 1.726 1.3 5.523 5.523 0 0 1 1.051 1.972 7.357 7.357 0 0 1 .3 2.467h-9.137a3.925 3.925 0 0 0 1.197 2.503Zm6.127-3.881a4.213 4.213 0 0 0-.3-1.3 3.079 3.079 0 0 0-.7-1.039 3.365 3.365 0 0 0-1.09-.7 3.933 3.933 0 0 0-1.493-.26 3.561 3.561 0 0 0-2.53.908 3.9 3.9 0 0 0-1.182 2.389ZM207.317 18.186h-1.74v-1.532h1.74v-4.881a3.575 3.575 0 0 1 .83-2.634 2.942 2.942 0 0 1 2.155-.818 3.348 3.348 0 0 1 1.648.369 3.133 3.133 0 0 1 1.077.976l-1.193 1.069a2.756 2.756 0 0 0-.546-.545 1.4 1.4 0 0 0-.83-.207 1.252 1.252 0 0 0-.961.387 2.107 2.107 0 0 0-.364 1.423v4.861h2.882v1.532h-2.882V27.4h-1.816ZM219.517 27.609a5.873 5.873 0 0 1-2.258-.428 5.488 5.488 0 0 1-3.011-2.959 5.666 5.666 0 0 1 0-4.388 5.672 5.672 0 0 1 1.207-1.791 5.453 5.453 0 0 1 1.8-1.194 5.855 5.855 0 0 1 2.258-.429 5.79 5.79 0 0 1 2.233.429 5.318 5.318 0 0 1 1.791 1.194 5.791 5.791 0 0 1 1.194 1.791 5.666 5.666 0 0 1 0 4.388 5.639 5.639 0 0 1-1.19 1.778 5.421 5.421 0 0 1-1.791 1.181 5.808 5.808 0 0 1-2.233.428Zm0-1.532a3.975 3.975 0 0 0 1.569-.3 3.537 3.537 0 0 0 1.215-.846 3.8 3.8 0 0 0 .784-1.289 4.807 4.807 0 0 0 0-3.2 3.818 3.818 0 0 0-.784-1.289 3.521 3.521 0 0 0-1.215-.845 3.975 3.975 0 0 0-1.569-.3 4.064 4.064 0 0 0-1.581.3 3.48 3.48 0 0 0-1.228.845 4 4 0 0 0-.8 1.289 4.617 4.617 0 0 0 0 3.2 3.977 3.977 0 0 0 .8 1.289 3.5 3.5 0 0 0 1.228.846 4.063 4.063 0 0 0 1.581.3ZM228.343 16.654h1.819l-.052 2.1a3.712 3.712 0 0 1 1.35-1.778 3.257 3.257 0 0 1 1.791-.533 3.9 3.9 0 0 1 1.051.128 2.663 2.663 0 0 1 .818.383l-.7 1.566a2.357 2.357 0 0 0-.61-.3 2.75 2.75 0 0 0-.869-.117 2.613 2.613 0 0 0-1.96.859 3.9 3.9 0 0 0-.818 2.76V27.4h-1.818Z"/></svg>